/* XPM */
static char *_bc7a11d3b4c4f029e77c0581ad8aa4b3cM3pnq46qlkMCvM[] = {
/* columns rows colors chars-per-pixel */
"32 32 210 2 ",
"   c None",
".  c #190F0F",
"X  c #1C120D",
"o  c #100D10",
"O  c #141114",
"+  c #141217",
"@  c #151317",
"#  c #171317",
"$  c #19161B",
"%  c #18161D",
"&  c #1A171E",
"*  c #261A12",
"=  c #2C1B16",
"-  c #2C1E15",
";  c #2E1E17",
":  c #231718",
">  c #33211B",
",  c #362719",
"<  c #34211D",
"1  c #37281A",
"2  c #37291D",
"3  c #1C1921",
"4  c #1E1921",
"5  c #1E1A21",
"6  c #1F1A22",
"7  c #1E1B22",
"8  c #1E1C24",
"9  c #1F1C24",
"0  c #211920",
"q  c #201B22",
"w  c #201B23",
"e  c #211D25",
"r  c #211D26",
"t  c #221C26",
"y  c #211E26",
"u  c #211E27",
"i  c #201E28",
"p  c #211F28",
"a  c #2B2424",
"s  c #222028",
"d  c #23212A",
"f  c #23212B",
"g  c #252129",
"h  c #242229",
"j  c #27212A",
"k  c #25232C",
"l  c #24222D",
"z  c #27242D",
"x  c #27252E",
"c  c #26242F",
"v  c #2C262D",
"b  c #3F2A21",
"n  c #292530",
"m  c #282531",
"M  c #282630",
"N  c #2B2630",
"B  c #2A2733",
"V  c #2E2734",
"C  c #2B2831",
"Z  c #2F2934",
"A  c #2D2A34",
"S  c #2E2A35",
"D  c #2D2A37",
"F  c #2E2B36",
"G  c #2F2B37",
"H  c #2F2C38",
"J  c #2E2D39",
"K  c #332A32",
"L  c #332B33",
"P  c #302934",
"I  c #312B37",
"U  c #3A2D31",
"Y  c #3D2E35",
"T  c #322F3C",
"R  c #32303B",
"E  c #36313A",
"W  c #36313E",
"Q  c #532D22",
"!  c #502E24",
"~  c #4D3821",
"^  c #4C3921",
"/  c #41312A",
"(  c #44322C",
")  c #45302E",
"_  c #503025",
"`  c #523124",
"'  c #533025",
"]  c #5B3427",
"[  c #563029",
"{  c #543228",
"}  c #56372A",
"|  c #5B3329",
" . c #59342A",
".. c #57392C",
"X. c #42373A",
"o. c #47373C",
"O. c #543C3A",
"+. c #663F2B",
"@. c #613A2F",
"#. c #623B2E",
"$. c #643D2E",
"%. c #643C31",
"&. c #1E7216",
"*. c #2B6B1B",
"=. c #3F4E21",
"-. c #584125",
";. c #5C4526",
":. c #57452F",
">. c #59442A",
",. c #5C492B",
"<. c #5D492B",
"1. c #5E4A2D",
"2. c #5F4B2E",
"3. c #5F4C2E",
"4. c #445828",
"5. c #4B4038",
"6. c #574736",
"7. c #524438",
"8. c #5B4B3F",
"9. c #604D2F",
"0. c #68512B",
"q. c #654234",
"w. c #604D30",
"e. c #614E30",
"r. c #604E31",
"t. c #614E31",
"y. c #624F32",
"u. c #624F33",
"i. c #6F4C38",
"p. c #764C33",
"a. c #71483B",
"s. c #635033",
"d. c #635034",
"f. c #655235",
"g. c #675335",
"h. c #6C5536",
"j. c #625039",
"k. c #725A36",
"l. c #745B35",
"z. c #7A5F31",
"x. c #785E33",
"c. c #527D34",
"v. c #7D6132",
"b. c #7D6033",
"n. c #7D6233",
"m. c #7D6333",
"M. c #7E6333",
"N. c #7F6333",
"B. c #7B6034",
"V. c #7E6335",
"C. c #7D613E",
"Z. c #373341",
"A. c #6B4C46",
"S. c #795141",
"D. c #6B5353",
"F. c #767344",
"G. c #806433",
"H. c #816433",
"J. c #806533",
"K. c #816533",
"L. c #806434",
"P. c #826534",
"I. c #846736",
"U. c #856838",
"Y. c #884B46",
"T. c #835646",
"R. c #8E5C4A",
"E. c #895E4F",
"W. c #856249",
"Q. c #956754",
"!. c #946955",
"~. c #9B685A",
"^. c #9A6C58",
"/. c #996E5D",
"(. c #A16C5B",
"). c #A66C5C",
"_. c #A57856",
"`. c #856964",
"'. c #8F6F66",
"]. c #B57D67",
"[. c #B77C69",
"{. c #C07C6A",
"}. c #57863A",
"|. c #60803C",
" X c #708247",
".X c #B98269",
"XX c #AE986B",
"oX c #BF8571",
"OX c #BE8972",
"+X c #BCA277",
"@X c #C48A74",
"#X c #C6947D",
"$X c #C9957E",
"%X c #D09C83",
"&X c #D59D84",
"*X c #D39F88",
"=X c #D4A289",
"-X c #D6A48D",
";X c #DCA58B",
":X c #DFA88E",
">X c #DEA791",
",X c #E5AD92",
"<X c #E4AD93",
"1X c #E8B096",
"2X c #E8B399",
"3X c #EBB49B",
"4X c #ECB59A",
"5X c #E8B49D",
"6X c #EFB59F",
"7X c #F3C1A8",
/* pixels */
"                                                                ",
"                                                                ",
"                        K.K.K.K.K.K.K.K.                        ",
"                  K.K.K.K.K.K.K.K.K.K.K.K.K.K.                  ",
"                K.K.K.K.K.K.K.K.K.K.K.K.K.K.K.K.                ",
"              K.K.K.K.K.K.K.K.L.K.K.K.K.K.K.K.K.K.              ",
"            K.K.K.K.K.K.K.0.1 - 2 >.N.K.K.K.K.K.K.K.            ",
"          K.K.K.K.K.K.K.B.* X = < > -.K.K.K.K.K.K.K.K.          ",
"        K.K.K.K.K.K.K.K.;.; S.oX>X5X!.N.K.K.K.K.K.K.K.K.        ",
"      K.K.K.K.K.K.K.K.K.^ b T.OX6X7X&XN.K.K.K.K.K.K.K.K.        ",
"      K.K.K.K.K.K.K.K.K.^ } 4.*.~.}. XL.K.K.K.K.K.K.K.K.K.      ",
"      K.K.K.K.K.K.K.K.K.+.q.=.&.~.c.c.U.K.K.K.K.K.K.K.K.K.      ",
"    K.K.K.K.K.K.K.K.K.K.p.a.W.F.).XX+XI.K.K.K.K.K.K.K.K.K.K.    ",
"    K.K.K.K.K.K.K.K.K.K.K.i.%.%.| [.[.P.K.K.K.K.K.K.K.K.K.K.    ",
"    K.K.K.K.K.K.K.K.K.:., } {  .Y.{._.K.K.K.K.K.K.K.K.K.K.K.    ",
"    K.K.K.K.K.K.K.K.h.v : ! ! #.(.@X( x.K.K.K.K.K.K.K.K.K.K.    ",
"    K.K.K.K.K.m.V.d.a n U ` ` Q | ^.. / K.K.K.K.K.K.K.K.K.K.    ",
"    K.K.K.K.m.5.E D # j I E.$.] R..X) 0 k.K.K.K.K.K.K.K.K.K.    ",
"    K.K.K.K.N.x x n O x t `.%X#X;X,XA.j X.k.K.K.K.K.K.K.K.K.    ",
"    K.K.K.K.N.x s e $ e 4 K -X3X4X2XO.V W Z 8.K.K.K.K.K.K.      ",
"      K.K.K.m.s s 7 e o j 7 '.,X1X*XY I D n Z.6.K.K.K.K.K.      ",
"      K.K.K.N.% l s 8 & w w L =X:X/.I D D C T D B.K.K.K.K.      ",
"        K.K.m.+ 9 c 3 s + & w D.$Xo.D C c T J x 7.K.K.K.        ",
"        K.V.V.1.1.3.3.1.u.<.1.9.C.u.u.u.u.f.s.u.g.K.K.K.        ",
"          K.K.K.K.K.K.K.K.K.K.K.K.K.K.K.K.K.K.K.K.K.K.          ",
"            K.K.K.K.K.K.K.K.K.K.K.K.K.K.K.K.K.K.K.K.            ",
"              K.K.K.K.K.K.K.K.K.K.K.K.K.K.K.K.K.K.              ",
"                K.K.K.K.K.K.K.K.K.K.K.K.K.K.K.K.                ",
"                    K.K.K.K.K.K.K.K.K.K.K.K.                    ",
"                          K.K.K.K.K.K.                          ",
"                                                                ",
"                                                                "
};
