/* XPM */
static char *_07e906fdbec4c24aa31e0b459153e28znYseDxdOCe3mfbe[] = {
/* columns rows colors chars-per-pixel */
"32 32 172 2 ",
"   c None",
".  c #BF9239",
"X  c #C19337",
"o  c #C2953A",
"O  c #BF9446",
"+  c #C29745",
"@  c #C49A43",
"#  c #C7A245",
"$  c #CBA64C",
"%  c #CFAA4B",
"&  c #D0AA4C",
"*  c #C7A554",
"=  c #C8A354",
"-  c #C3A956",
";  c #CDAB56",
":  c #C6A75E",
">  c #C8A659",
",  c #C0A85D",
"<  c #CBAB5D",
"1  c #D6AF57",
"2  c #D2AD5A",
"3  c #D3B255",
"4  c #D4B35C",
"5  c #DCB55C",
"6  c #D5B95E",
"7  c #DBBD5E",
"8  c #E1B65B",
"9  c #E3B95E",
"0  c #CCAD61",
"q  c #C7B367",
"w  c #CDB162",
"e  c #CEBC6F",
"r  c #D3B464",
"t  c #D9B561",
"y  c #D4BA64",
"u  c #DDBA64",
"i  c #D1B46A",
"p  c #D8B769",
"a  c #D5BA6C",
"s  c #DABB6C",
"d  c #D9BD72",
"f  c #E3BD63",
"g  c #E8BD62",
"h  c #E3BE6A",
"j  c #DDC364",
"k  c #D7C16C",
"l  c #DEC36C",
"z  c #DFC96D",
"x  c #D5C373",
"c  c #DDC573",
"v  c #DDCA74",
"b  c #DCC578",
"n  c #D6CA7C",
"m  c #DCCA7C",
"M  c #DFD079",
"N  c #E4C166",
"B  c #EBC165",
"V  c #E4C36A",
"C  c #EDC56C",
"Z  c #E2CA6C",
"A  c #E9C96D",
"S  c #F2CA6F",
"D  c #E3C673",
"F  c #EAC774",
"G  c #E4CB74",
"H  c #EBCB73",
"J  c #E1C67C",
"K  c #E5CD7C",
"L  c #EACE7B",
"P  c #F4CE72",
"I  c #F1CE7A",
"U  c #E4D174",
"Y  c #EBD375",
"T  c #E5D47C",
"R  c #EDD37C",
"E  c #E4D97E",
"W  c #ECDB7D",
"Q  c #F3D376",
"!  c #FBD476",
"~  c #F3D47D",
"^  c #FAD67A",
"/  c #F1DB7D",
"(  c #FDDB7E",
")  c #DEC984",
"_  c #DBD285",
"`  c #E6CF83",
"'  c #E9CD82",
"]  c #E2CE88",
"[  c #E5D184",
"{  c #ECD484",
"}  c #E7DD84",
"|  c #EBDC84",
" . c #E3D28C",
".. c #E8D78F",
"X. c #EBDB8C",
"o. c #F1D482",
"O. c #FBD780",
"+. c #F5DC84",
"@. c #F9DD84",
"#. c #F3DA8B",
"$. c #FADF89",
"%. c #E3D094",
"&. c #EDDE94",
"*. c #F1DE93",
"=. c #EEE183",
"-. c #E6E28D",
";. c #ECE38D",
":. c #F3E485",
">. c #FDE284",
",. c #F3E58D",
"<. c #FDE58B",
"1. c #F4EB8C",
"2. c #FCEC8D",
"3. c #EEE290",
"4. c #EFEB93",
"5. c #F2E592",
"6. c #FAE191",
"7. c #F5EB92",
"8. c #FBEC90",
"9. c #F4E69C",
"0. c #F3EA9C",
"q. c #FDED98",
"w. c #F7F191",
"e. c #FFF090",
"r. c #FEF294",
"t. c #FAF596",
"y. c #FFF494",
"u. c #FEF597",
"i. c #FBF393",
"p. c #F7F099",
"a. c #F7F09A",
"s. c #F6F09B",
"d. c #FDF29B",
"f. c #FDF699",
"g. c #FAF19F",
"h. c #FAF29F",
"j. c #FBF59D",
"k. c #FCF69A",
"l. c #FBF899",
"z. c #FEF899",
"x. c #FFF999",
"c. c #FEF99A",
"v. c #FFF99A",
"b. c #FDFB9B",
"n. c #FFF99C",
"m. c #FCFA9D",
"M. c #FEFC9D",
"N. c #FFFD9D",
"B. c #FEFC9E",
"V. c #FEFD9E",
"C. c #FFFD9E",
"Z. c #FEFE9F",
"A. c #FDFA9B",
"S. c #EDDAA0",
"D. c #E8D9A7",
"F. c #F0E2A4",
"G. c #F4ECA3",
"H. c #FCE9A7",
"J. c #FCEBA8",
"K. c #F7F0A2",
"L. c #FDFDA5",
"P. c #FDFCA7",
"I. c #FDFDA0",
"U. c #F7F1AE",
"Y. c #FDF0A9",
"T. c #FDF1A9",
"R. c #FDFBAB",
"E. c #FAF7BC",
"W. c #FCFBBC",
"Q. c #EFE4C0",
"!. c #F9F4D6",
"~. c #FCFAEA",
/* pixels */
"                          J.Y.d.y.u.d.                          ",
"                  { 9.K.L.N.N.x.u.e.2.2.>.+.                    ",
"                ;.p.l.E 6 y l v [ | T D I ! S H                 ",
"            ` 5.w.6 # 3 G U M -.4._ ;.1.:.G V C B Z             ",
"          [ ,.U . % w k x M } 4.N.;.| | b >.^ h f 8 5           ",
"        [ ,.t o w 6 j M M } ;.4.u.1.{ v R ~ s C V f 8 t         ",
"      S.7.6 o - - v Y E w.V.N.3.1.2.2.>.( s I i N B f 5 s       ",
"      ~.K X 3 , k v =.w.V.N.x.5.8.2.@.( ! S u s r t V N u       ",
"    &.K.. 3 q k v =.w._ m.x.u.,.<.@.( ! d S B 1 0 p 5 Y V p     ",
"  { p.2 % y q k =.w.V.K.;.u.2.v K ( ! p I B g 9 < r : A / L     ",
"  9.t.@ 7 6 x =.w.b.N.b.[ 2.:.L L P S J B g 9 8 8 2 h A :.+.s   ",
"  I.Z 3 Z E =.;.-.N.x.u.q.{ J $.@.D s S g 9 8 > t g A Y :.7.c   ",
"6.L.3 Z W :.w.m.0.n ,.8.2.$.F O.~ D F g 9 2 i L N A Y / :.j.4.  ",
"J.I.6 U z w.b.N.x.d...b @.c @.P C ^ u 8 0 J V h A Y / | 2.R.I.r ",
"Y.N.j 3 4 7.N.x.u.2.2.<.^ G ~ C g I s u F 9 N A Q / ,.;.W W.x.a ",
"h.x.z U v b.x.u.2.2.>.( s @.p 0 < 2 ~ t 9 N A Y / :.2.} ;.E.t.p ",
"y.u.U 7 u 7.6. . .] ] I D D H @.@.F c s c ) ) ]  .5.j.X.U U.7.y ",
"u.e.} T c w.2.2.<.( ^ s Q m ~ h f o.b Q l Y / :.1.t.j.T Z K.=.y ",
"t.2.{ j s W 2.>.( ! P V o.R Q w w Q o.#.c / :.1.x.b.j.` Z 0.W ; ",
"i.<.G W l *.<.O.! h r o.g h F R o.R H Y o.M ;.p.x.1.;.v c !.l   ",
"  >.L Y D Q.6.P a ' d I 8 8 8 9 h A Y W ,.` 3._ 1.W 0.T G S.*   ",
"  +.! L F { | P I t L > * * > < w a k n _ L 4.w.W 0.b 3 &.Z *   ",
"  :.S F F X.K Q B J #.o.#.#.#.#.#.,.$.6.5.6.;.W =.0.3.s { &     ",
"    A C F N ' | B 9 8 8 9 N A Q / :.7.d.d.1.W W 0.%.4 X.7 +     ",
"      B h D T Z W f 9 9 N Z Y / / w.l.l.1.:.1.W v D.&.u @       ",
"      Z 9 f N o.Y N A N A Y / :.w.l.l.w.W :.E 1.E G D $ =       ",
"        1 8 f N 1 Z u Z f V Y w.x.( Y ( Y 1.U 3 T Z & +         ",
"          1 5 N Y N V f u V V / :.Y Z :.Y 7 z &.l $ O           ",
"            t u A / :.Y W V G 1.=.Y :.N G X.| 7 @ =             ",
"                r Y +.1.k.G.W.E.U.G.3.5.| Z ; +                 ",
"                    p b p.N.V.w.w.:.W v * $                     ",
"                          a a a r r 0                           "
};
