/* XPM */
static char *_e1b2a7aeb844f4de3539917db8980d36IYhaUUXAOqxFzW6[] = {
/* columns rows colors chars-per-pixel */
"16 16 197 2 ",
"   c None",
".  c #CBA450",
"X  c #C8A754",
"o  c #CCAA53",
"O  c #CFAD53",
"+  c #D6AE59",
"@  c #D5B45B",
"#  c #D6B15D",
"$  c #D4B65D",
"%  c #DCB45B",
"&  c #DCB75F",
"*  c #DEB85E",
"=  c #E3B95F",
"-  c #D1B063",
";  c #D8B767",
":  c #DFBA62",
">  c #D9BD61",
",  c #DABF62",
"<  c #D8BB64",
"1  c #DCB965",
"2  c #DEB964",
"3  c #DBBF67",
"4  c #D0BC6A",
"5  c #D5BF6A",
"6  c #DBBE69",
"7  c #DEBF68",
"8  c #DDBC6C",
"9  c #DEBF6E",
"0  c #E2BD62",
"q  c #E2BE63",
"w  c #E4BD62",
"e  c #E3BB64",
"r  c #E5BE65",
"t  c #E5BE66",
"y  c #E8BD61",
"u  c #E0BE69",
"i  c #E0BE6A",
"p  c #E3BF6A",
"a  c #DBC265",
"s  c #DCC366",
"d  c #DAC069",
"f  c #DBC16A",
"g  c #DDC16B",
"h  c #DFC769",
"j  c #D8C26C",
"k  c #DFC86A",
"l  c #DEC86E",
"z  c #E2C166",
"x  c #E2C367",
"c  c #E4C065",
"v  c #E4C067",
"b  c #E2C368",
"n  c #E2C06E",
"m  c #E6C46F",
"M  c #E8C46D",
"N  c #EAC56E",
"B  c #E5C86C",
"V  c #E8C86E",
"C  c #E9CA6E",
"Z  c #EACA6F",
"A  c #ECC86D",
"S  c #E3C273",
"D  c #E6C772",
"F  c #E0C674",
"G  c #E6C574",
"H  c #EBC771",
"J  c #E1CB72",
"K  c #E7CB72",
"L  c #E1CC70",
"P  c #E1CC72",
"I  c #E0C975",
"U  c #E7C874",
"Y  c #E6CA74",
"T  c #E6CB76",
"R  c #E6CA77",
"E  c #E2CD76",
"W  c #E9CA70",
"Q  c #E9C872",
"!  c #EDCA70",
"~  c #E8CA75",
"^  c #E9C977",
"/  c #E8CE75",
"(  c #EBCD76",
")  c #ECCC76",
"_  c #E1C978",
"`  c #E2CE78",
"'  c #E6CF7C",
"]  c #E6CE7D",
"[  c #EACC79",
"{  c #EECE78",
"}  c #ECCF7A",
"|  c #F3CE73",
" . c #F1CD74",
".. c #F0CF77",
"X. c #E6D172",
"o. c #E7D377",
"O. c #E0D07A",
"+. c #E0D37B",
"@. c #E6D37B",
"#. c #E6D67E",
"$. c #EED179",
"%. c #EFD279",
"&. c #EFD37B",
"*. c #E8D37D",
"=. c #EED37D",
"-. c #EFDB7E",
";. c #F5D074",
":. c #F4D27A",
">. c #F0D57E",
",. c #F5D57F",
"<. c #F0D97C",
"1. c #F0DA7F",
"2. c #F1DC7E",
"3. c #E4D081",
"4. c #E6D481",
"5. c #E7D581",
"6. c #E7D681",
"7. c #E7D483",
"8. c #E7D782",
"9. c #E9D581",
"0. c #E8D783",
"q. c #EED580",
"w. c #EDD681",
"e. c #E5DA87",
"r. c #EBDA81",
"t. c #EBDD83",
"y. c #E9DE83",
"u. c #EDDD80",
"i. c #EDDF80",
"p. c #EAD985",
"a. c #EAD987",
"s. c #ECDB85",
"d. c #ECDD84",
"f. c #EAD18A",
"g. c #EADA88",
"h. c #ECDA88",
"j. c #EEDE88",
"k. c #EEDC8C",
"l. c #F1D783",
"z. c #F2D881",
"x. c #F7DB81",
"c. c #F4DE85",
"v. c #ECDF91",
"b. c #EDDE9D",
"n. c #EEE184",
"m. c #EEE384",
"M. c #EFE485",
"N. c #E9E38C",
"B. c #F1E083",
"V. c #F5E285",
"C. c #F3E687",
"Z. c #FEE183",
"A. c #F9E286",
"S. c #FEE284",
"D. c #FEE287",
"F. c #F0E189",
"G. c #F2E189",
"H. c #F0E08A",
"J. c #F2E08B",
"K. c #F0E68B",
"L. c #F4E588",
"P. c #F1E68F",
"I. c #F4E48D",
"U. c #F8E388",
"Y. c #F5EB8E",
"T. c #FDEB8D",
"R. c #FCEA8E",
"E. c #FDEB8E",
"W. c #FFEE8F",
"Q. c #EBE290",
"!. c #EEE190",
"~. c #F1E491",
"^. c #F2E890",
"/. c #F4EC91",
"(. c #F3E995",
"). c #F7EF95",
"_. c #F4ED96",
"`. c #F9EA91",
"'. c #F8EB91",
"]. c #F8EF90",
"[. c #F5ED9F",
"{. c #F8EA9C",
"}. c #F8EB9C",
"|. c #F7F497",
" X c #F9F295",
".X c #FFF294",
"XX c #FEF394",
"oX c #FAF595",
"OX c #FAF29A",
"+X c #FEF79D",
"@X c #FFF999",
"#X c #FDFA9A",
"$X c #FEF89D",
"%X c #F5EFA2",
"&X c #FDF7A1",
"*X c #FEF7A2",
"=X c #F8EECA",
/* pixels */
"          }.*X+X.XT.U.          ",
"      k.d.s l +.e.j.%.A W       ",
"    h.> O j +.N./.0.,.m w :     ",
"  =X< X 5 M.@X).T.x.| 8 1 q     ",
"  g.o 4 M._. XG.x. .N = - 7 T   ",
"}.> k y.|.@Xj.l.} D w % * C L.  ",
"*Xh i.@X(.a.z.:. .r ; n C z.OX6.",
"$Xa t.@X].D.} p 1 i r C 2.F.%X#.",
".XP r.L.l.^ T ) ) T F 9.~.P.!.P ",
"T.o.] D.| D H T [ =.*.Y.oXp.b.f ",
"A.%.f.,.S 8 + # 7 E 4.Q.P.I 6.  ",
"  ! ~ q.p N W &.c.`.`.i.v._ @   ",
"  C t / B c C 2.Y.oXL.n.3.g     ",
"    & q b z z -.V.-.X.P 3 .     ",
"      i K B.j.[.~.d.@.@         ",
"          ] p.p.E f             "
};
