/* XPM */
static char *_db5156c17e841bebdf8787e58fca288FL8lAFw4IZzf0Qdl[] = {
/* columns rows colors chars-per-pixel */
"16 16 60 1 ",
"  c None",
". c #1A171D",
"X c #2B1D14",
"o c #3D2B1F",
"O c #1F1B23",
"+ c #201C23",
"@ c #211F27",
"# c #252027",
"$ c #25222A",
"% c #312424",
"& c #3E3226",
"* c #2B2834",
"= c #332C36",
"- c #3D3237",
"; c #3B353A",
": c #44311F",
"> c #432C22",
", c #433728",
"< c #40352A",
"1 c #41372C",
"2 c #4A3D2F",
"3 c #593327",
"4 c #583529",
"5 c #5D3D2C",
"6 c #473C33",
"7 c #483D33",
"8 c #493E34",
"9 c #443438",
"0 c #443938",
"q c #573D38",
"w c #31621E",
"e c #5C4726",
"r c #564529",
"t c #4C4037",
"y c #574632",
"u c #524234",
"i c #755B2F",
"p c #6B5038",
"a c #765237",
"s c #705A35",
"d c #715A35",
"f c #785F36",
"g c #785B39",
"h c #7F6433",
"j c #7D6234",
"k c #727037",
"l c #735946",
"z c #797749",
"x c #816533",
"c c #95744A",
"v c #97724C",
"b c #956452",
"n c #986C57",
"m c #A1705C",
"M c #B07363",
"N c #A47E70",
"B c #CA9780",
"V c #D7A28A",
"C c #E6AF95",
"Z c #EAB59D",
/* pixels */
"                ",
"     xxxxxx     ",
"    xxxxxxxx    ",
"   xxxeXoixxx   ",
"  xxxx:mZvxxxx  ",
" xxxxx5wzkxxxxx ",
" xxxxxapncxxxxx ",
" xxxxy>4Mgxxxxx ",
" xxdt#q3b%jxxxx ",
" xx2$O-VC90fxxx ",
" xx<@.+NB=*;hx  ",
"  xr1<&ul786dx  ",
"   xxxxxxxxxx   ",
"    xxxxxxxx    ",
"      xxxx      ",
"                "
};
