/* XPM */
static char *cd3e2d9c9da14ab5844914c0d98fec714gYVtjfrc2hlRb6I[] = {
/* columns rows colors chars-per-pixel */
"64 64 230 2 ",
"   c None",
".  c #A66E1A",
"X  c #A8721D",
"o  c #A97423",
"O  c #AC7924",
"+  c #AA782A",
"@  c #B27E28",
"#  c #AF7F37",
"$  c #B2802B",
"%  c #B28333",
"&  c #B68A33",
"*  c #BD8D33",
"=  c #B38438",
"-  c #B6893A",
";  c #BB8F3A",
":  c #BD933C",
">  c #BE983F",
",  c #AF8036",
"<  c #C29536",
"1  c #C2963B",
"2  c #C4993C",
"3  c #C89B3B",
"4  c #B68A40",
"5  c #B88C42",
"6  c #AD904F",
"7  c #BD9345",
"8  c #B2954C",
"9  c #BF9A49",
"0  c #B99A47",
"q  c #AC9352",
"w  c #AD9859",
"e  c #B19A54",
"r  c #B39C5B",
"t  c #B69955",
"y  c #BBA253",
"u  c #B3A15D",
"i  c #BBA35D",
"p  c #B9AA5F",
"a  c #B5A463",
"s  c #BBA563",
"d  c #BDAA63",
"f  c #B7AB6A",
"g  c #B9AC6B",
"h  c #B7AA66",
"j  c #BBB473",
"k  c #B6AF72",
"l  c #C59D46",
"z  c #C39C4B",
"x  c #C39748",
"c  c #C29B52",
"v  c #CDA444",
"b  c #C6A44B",
"n  c #CBA44C",
"m  c #CFA84A",
"M  c #C7A449",
"N  c #D2AC4D",
"B  c #C5A353",
"V  c #CAA353",
"C  c #CAAA54",
"Z  c #CEAC5B",
"A  c #C8A959",
"S  c #D2AD53",
"D  c #D9AE54",
"F  c #D3AD5A",
"G  c #D0A653",
"H  c #CDB25B",
"J  c #D5B254",
"K  c #DAB456",
"L  c #D9B857",
"P  c #D4B35B",
"I  c #DBB55B",
"U  c #D6B95E",
"Y  c #DBBC5C",
"T  c #E1B75B",
"R  c #E4B95E",
"E  c #C4AC64",
"W  c #CCAD62",
"Q  c #C2AE6A",
"!  c #CCB365",
"~  c #C3B16B",
"^  c #CCB36B",
"/  c #CEBB6C",
"(  c #C4B465",
")  c #D3B464",
"_  c #DBB562",
"`  c #D5BB64",
"'  c #DBBC63",
"]  c #D2B66A",
"[  c #D5BB6C",
"{  c #DBBD6B",
"}  c #D9B769",
"|  c #C9B671",
" . c #C5BB73",
".. c #CCBB73",
"X. c #C6B976",
"o. c #D4BB73",
"O. c #DBBE73",
"+. c #D7BB7E",
"@. c #C3AF72",
"#. c #E4BC62",
"$. c #E9BE62",
"%. c #E2BE69",
"&. c #E1BF70",
"*. c #DDC264",
"=. c #D5C36D",
"-. c #DCC46C",
";. c #DAC56A",
":. c #CDC57A",
">. c #CBC579",
",. c #DCC474",
"<. c #DECA73",
"1. c #D2C57E",
"2. c #DDC27A",
"3. c #DACB7C",
"4. c #D6C674",
"5. c #E5C165",
"6. c #EBC165",
"7. c #E6C56A",
"8. c #EDC56A",
"9. c #E3CA6C",
"0. c #E9C96D",
"q. c #F0C76B",
"w. c #F2C96D",
"e. c #E3C473",
"r. c #EAC672",
"t. c #E4CC72",
"y. c #EACD72",
"u. c #E2C57D",
"i. c #E3CC7B",
"p. c #EBCA7C",
"a. c #E9C77A",
"s. c #F4CC71",
"d. c #F0CE7D",
"f. c #E5D273",
"g. c #EBD275",
"h. c #E5D37C",
"j. c #EDD57A",
"k. c #E6D87C",
"l. c #ECDC7D",
"z. c #F4D476",
"x. c #FAD274",
"c. c #F7D877",
"v. c #F2D479",
"b. c #FCD67A",
"n. c #F3DA7C",
"m. c #FDDA7C",
"M. c #DECA81",
"N. c #DBC785",
"B. c #DCD484",
"V. c #DBD389",
"C. c #DECE91",
"Z. c #E6CF83",
"A. c #E9CD84",
"S. c #E7CF8A",
"D. c #F0CE81",
"F. c #E5D381",
"G. c #EBD484",
"H. c #E5DC86",
"J. c #ECDD82",
"K. c #E6D48C",
"L. c #EAD48B",
"P. c #EBDA8A",
"I. c #F2D384",
"U. c #F3DE82",
"Y. c #FCDD82",
"T. c #F1D68A",
"R. c #F6DC8B",
"E. c #F9DE8B",
"W. c #EDDD92",
"Q. c #ECDD9B",
"!. c #E7D594",
"~. c #F0D590",
"^. c #F3DB95",
"/. c #F4DD9A",
"(. c #F9DF94",
"). c #EEE283",
"_. c #EEE38A",
"`. c #F2E485",
"'. c #FDE385",
"]. c #F2E58C",
"[. c #FEE589",
"{. c #F5EB8C",
"}. c #FDEB8D",
"|. c #EFE59B",
" X c #EBE793",
".X c #F3E394",
"XX c #FAE294",
"oX c #F4EC93",
"OX c #FDED91",
"+X c #F3E39B",
"@X c #FAE39A",
"#X c #F5ED9C",
"$X c #FAEA9C",
"%X c #F7F191",
"&X c #FCF494",
"*X c #F5F19B",
"=X c #FCF69A",
"-X c #FEFB9C",
";X c #F7F08F",
":X c #EDDEA7",
">X c #EBD6A1",
",X c #EEE1A1",
"<X c #F5E4A2",
"1X c #FAE6A3",
"2X c #F4EBA4",
"3X c #FAEAA4",
"4X c #F2E4AB",
"5X c #FBEDAB",
"6X c #FCE7AB",
"7X c #FBF4A4",
"8X c #FDFAA3",
"9X c #FCF4AB",
"0X c #FDFBAB",
"qX c #F7F1AC",
"wX c #EDE0BF",
"eX c #F4EDB1",
"rX c #F8EAB5",
"tX c #F6F1B4",
"yX c #FBF4B4",
"uX c #FDFAB3",
"iX c #F9F6B9",
"pX c #FEFEBD",
"aX c #F3E8C5",
"sX c #FCFBC5",
"dX c #FCFBCB",
"fX c #F9F5CB",
"gX c #FDFCD5",
"hX c #FBF9DA",
"jX c #FBF9E7",
"kX c #FDFDF5",
/* pixels */
"                                                              OX                                                                ",
"                                                Y.E.6XrXyXuX9X&X&X&X&X&X=X=X=X&X                                                ",
"                                          g.<X5XuXuX8X8X-X-X-X=X=X&X&X&X}.}.}.}.{.`.].                                          ",
"                                    y.G.4X9X=X-X-X-X8X-X-X-X=X=X&X&XOX}.}.[.[.'.'.m.m.n.J.                                      ",
"                                f.S.,X7X%X-X-X-X-X{.=.b 9 9 y b y A A W [ K.(.Y.m.m.b.x.x.y.h.                                  ",
"                              e.|.*X%X&X-X&Xf.9 & l J ;.j.l.).{.%X=X=X=X{.h.*.W } D.b.x.s.w.w.7.t.                              ",
"                          5.!.+X{.%X&X{.b $ : J *.9.P.l.H.1.3.%X&XoXM.+X=X8X=X&X`.*.! %.s.w.q.q.6.Y                             ",
"                        ' >X{.{.%X;XM $ 2 J *.*.<.<.=.l.f.k.V.oX-XB.H.:.1.].B.OX$XOX[.y.) { 8.8.6.6.L e.                        ",
"                      ,.<X`.{.%X;.O < m ' a.u ;.` H.3.l.J. . .=X-X-X_._.&XG.J.U.g G.}.'.Y.7.) $.$.$.R K _                       ",
"                    2.|.).{.{.: @ v N J H e <.<.=.=. .).{._.*X*X8X-XJ.%X&X4.OX,.^.E '.m.Y.Y.x.' %.$.R R K J                     ",
"                  2.+X`.{.l.O * v ` *.Y H =.;.k.k.f._.h H.>.:.oX-X=X.._.H./ ]./ [ j.m.E.Q ^ d.w.7.{ R R T D S                   ",
"                O.+X`.{.f.X < v [ ` y *.9.f.` h.l.>.{.%X=X-X-X-X-X=X&X&XOXU.,.f.'.'.Y.[ #.%.) w.q.6.-.R T R P P                 ",
"              } ,X`.{.f.. < N C y y <.-.f.k.4.4.{.%X&X-X-X-X-X:.F.&X&X}.}.}.[.'.Y.m.d._ x.s.I.o.e.6.6.9.R T T F '               ",
"            aXrX{.oXj.. 3 m i t C H / k.l.l.`.{.%X&X-X-X-X-X-XP.$X&X}.}.}.[.'.'.m.m.s.E O.p.s V { %.$.#.9.T T #.Z               ",
"            jXjXqX`.X 3 v n -.i.f.9.p =.l.l.{.;X=X-X-X-X-X=X&XP.oXOX}.}.[.'.m.m.m.x.x.q.P 7.) r.{ F r.#.5.t.T #.%.V             ",
"          aXkXjXqX& * v -.U 8 e p ;.l.l.l.;X;X=X-X-X-X-X-X=X&XL.XX}.}.[.'.m.m.m.x.x.w.w.8.F o.^ 8 a.i F T t.0.$.7.O.F           ",
"        a.4XsXqXU $ v J 8 E i./ Q ;.l.`.{.%X>. X-X-X-X-X=X&X&X$X$X}.[.'.Y.m.b.x.} ^ w.w.q.$.F F A.q V r.%.T l.0.7.0.V           ",
"        S.#X*X`.X v N [ -.H p <.<.l.`.{.%X%X X>.8X-X-X=X&X&XOX1.G.'.'.'.m.b.b.s.E I.w.8.$.$.$.D 6 ) u.) B R #.J.0.y.A.V         ",
"      r.2X%X=X: > m ` 0 u h.i.=.l.`.{.%X&X-X0XJ.V.=X&X&X&X}.}./ ..'.Y.m.m.x.s.E A.d.q.$.$.$.R R F E t Z o.%.R l.j.g.j.W         ",
"      L.*X&XJ.O N S ( h.=.u p l.`.{.%X&X-X-X8X7X| &X&X&X}.}.4.y.t.a.m.m.x.x.r.^ R.6.$.$.$.$.R R T V e.[ q C 5.0.{.j.v.P.V       ",
"    G.2X&X=X: M L L H 8 .._.l.).{.%X&X-X-X8X-X8X].1.OXOXOX[.^ c.c.o.c.x.s.s.r R.w.8.$.$.R R R T T K q t R 5.7.0.].`.n.U.A       ",
"    j.9X=X%XO J Y *.9.f./ p ).{.%X&X-X-X-X-X-X=X9XO.].}.}.3.e.[.E.t.r.x.s.} O.I.$.$.$.$.R R T T T T T #.5.7.0.0.v.%XU.].Z.F     ",
"    <X=X-XU 2 Y *.9.f.k.l.k.).oX&X-X-X-X-X-X&X&X&XXX..}.[.Q x.@X(.c.^ s.w.s (.$.$.$.#.R R T T T T R #.5.7.0.g.g.v.%X].{.#Xc     ",
"  R.qX-X-X& L *.*.f.l.l.`.{.%XB.f  X-X-X-X=X&X&X&X$Xi.R.i.e.E.E.R.Y.e.e.{ p.D.$.$.R R R T I V t F %.$.7.0.0.g.v.n.{.%XOX%XB     ",
"  b.uX-X%X& *.9.f.l.l.l.{.%X&X8X2X[ k *X=X&X&XOX}.}.$X'.Q c.@Xx.s.E.c.^ 8.D.$.$.R R R R I 6 [ /.0.5.0.0.y.g.j.j.n.`.8X%X&X,.    ",
"  @X0X8Xf.M 9.f.f.l.l.;X%X&X-X-X8X0X.XQ X.&X}.}.}.[.'.p.{ R.Y.x.s.I.n.{ %.$.$.$.R R R q E ^.K.5.5.7.0.0.g.v.n.U.`.{.0X=X=X+Xz   ",
"  rX-X8XJ U f.l.P {.;X&X&X-X-X-X-X=X-X9XA.s M.}.[.'.Y.Q c.(.x.s.w.q.R.c.W #.R R R t r G.L.%.$.$.7.0.0.j.j.n.J.].{.{.0X8X-X0Xx   ",
"  yX-X-X> -.j.f.l l.%X&X-X-X-X-X=X&X&X&X7X3X,.a j.Y.j.{ Y.I.s.w.q.8.d.m.] #.R F e 2.^.e.#.#.5.7.0.0.g.j.v.`.].h.{.OX0XuX-X-X9   ",
"  uX-X-X> l.m f.H k.{.=X-X-X-X&X=X&X}.}.}.}.=X@XT.m.Q c.(.s.w.8.8.6.$.R.v.W T O.^.p.R R $.5.7.0.y.g.v.n.U..XOXi.`.l.8XpX-X-X9   ",
"[.uX-X-X> l.v M b J H.-X8X-X-X&X&X&X&X}.}.[.'.[.Y.v.] n.T.w.q.8.$.$.$.p.b.^ I #.R Y R #.5.7.0.y.j.j.n.n.`.#X*Xh.{.<.8XdX-X&Xb   ",
"OX9X=X=Xl ).f.: 7 B &X8X-X-X=X&X&X&X}.[.[.'.m.m.b.Q z.(.s.8.8.$.$.$.#.$.I.v.E T T R $.5.5.0.0.j.j.n.`.`.{.{.F.3.` _.*XgX&X&XB   ",
"OX=X=X=Xb {.%X).<.8X-X-X-X=X&X&X}.}.[.[.m.'.m.m.x.^ b.T.%.t t i s t q I p.c.^ T R #.5.7.0.y.g.j.n.n.`.{.{.&X*X<.=X%X%XgX&X%XA   ",
"OX&X&X&Xb `.;.`.i.2.{.=X=X| g g g d h d s s E x.E g.K.r ^ v.c.c.x.c.g.! w p.g.W ' r r r r r u a s h  .oX%X7X*X3.{.j.).dX%X{.b   ",
"OX&X&X&XC ;X3 S B P ).=X&X7X3X3X6X6X1X1X1X1X(.d.^ c.t.c.c.b.R.~.~.R.c.c.c.t.c.Q 5.^.+X<X<X<X<X<X3X3X3X%X&X7X=X4.J.P ).dX;X{.b   ",
"&X=X&X&XC -X` ; z C &X&X&X}.}.[.[.'.Y.Y.b.b.x.E y.x.Y./.G.n.a.#.R p.c.L./.n.c.g.[ 0.0.j.v.n.U.`.{.{.%X=X-X-XF.Z.` Y l.dX{.).:   ",
"  =X&X%XC -X8X%X{ %X].&XOX}.}.[.[.m.m.b.x.x.s.Q c.c.@._ p.d.#.T T _ t.I.W | c.x.^ 0.j.j.n.`.`.{.}.&X=X=X-X*X{.[ l.f.J.iX`.).;   ",
"  &X}.}.Z %Xl.{.] 3.O.}.}.[.[.[.'.m.m.x.s.s.W y.XXE.c.! ,.c.e T I q v.O.[ c.XXY.t.,.j.v.U.`.{.%X&X=X-X-X%X8X_.O.f.9.).tXl.l.;   ",
"  =X}.}.,.).J N F _ [ }.}.[.'.m.m.b.x.x.s.s.E b.T.a.^.Y.c.x.y.E ( y.c.c.R.^.j.^.c...j.`.`.{.{.%X=X-X-X&X{.=XP.i.l.S +X,Xl.l.-   ",
"  =X}.[.L.9.{.l V Z j.[.[.Y.Y.m.m.x.x.s.w.W e.R.8.$.$.p.^./.Y.n.b.Y.@X^.G.0.y.G.R.e.h.`.`.{.&X&X-X-X&X{._.k.K.,.C <.fXrX).;.7   ",
"  %X[.'.[.` &X{.U.u.W.4XOX'.m.b.x.x.w.t ' E c.T.$.R R T T #.&.a.A.i.8.7.7.y.g.j..Xc...3.k OX=X-X-X&X{.`.0X).4.*.*.!.kXhXJ.M     ",
"    '.'.m.] }.t.j.u.:XjXrXY.b.b.x.i E ^.o.%.R.r.#.R R T T T T #.#.$.7.0.0.g.j.n.oXU.,.W..Xd >.*X&X{.`.`.-XK.[ t.*.W.jX4Xh.&     ",
"    '.Y.m.F.f.' Y u.>XaX@Xb.x.{ a G./.s.E v.T.#.R T T T T T #.#.$.7.0.y.j.j.n.n.`.@Xc.:.8XqXF.f H.`.l.j.+X2XP.l.b oX|.f.9.%     ",
"    `.m.b.Y.` `.F V N.I.W.v.x.D./.d.q._ { U.r.R T T T T T R #.$.7.e.y.g.j.v.n.`.{.2XY.4.*X=X7X#X_.l.#X Xi.3.[ n K iXt.9.n B     ",
"      n.x.x.u.v.'.Y.T.A..Xt.s.w.q.8.$.r c.+.6 6 6 6 6 6 6 e e w r r u a h h g g j j +.c.V.&X{.{.l.k.7X X,XJ L N l.Q.9.*.@       ",
"      l.x.s.I.{ c.p.G.!.#X_ r.8.q.8._ } n.v.v.v.j.v.v.j.v.v.v.c.v.c.z.z.z.z.c.v.z.z.v.c.=._.`.l.l.f.*X2XC.P.a.J iX9.*.I 4       ",
"      U.y.w.w.Z.y.,.l.W.K.$.oXj.$.$.%.^./.^.^.^.^./././././.+X+X<X+X1X<X3X3X5X5X5X9X5XqX2X_.l.f.-X).f.2X#X].b l. X5.Y @         ",
"        y.q.q.r.{ s.%.I a.p.oX`.$.$.#.T T T T T I R $.5.7.0.y.g.j.v.`.`.{.{.&X=X-X-X&X;X`.l.j.l.-X3.|.! F b L tX*.Y S =         ",
"        J.7.8.q.a.7.s.p.G.Z.+X-.#.y.#.T T T T T R #.5.7.0.y.g.j.v.`.`.{.{.%X=X-X-X%X{.`.J.l.;Xf.=X2XN.aXM.m 2XZ.Y Y +           ",
"          9.7.6.6.,.6.P.=X=X.X-.7.`.7.T T T R I 5.5.7.0.y.g.v.n.n.`.{.;X%X=X-X-X&X;Xl.l.k.%X-XY *X=XsXkX>XF.Q.Y L 2 7           ",
"            R $.$.$.,.#.{ ) D t.9.`.*.R 0.T R #.5.7.0.y.g.j.v.`.`.{.{.%X=X-X-X&X;X{.n.{.f.=Xk._.Z H o.+.t.eX' L S +             ",
"            y.I %.R %.9.5.$.$.a.f.U.G 5.y.7.$.5.7.0.0.j.v.n.n.`.{.}.%X-X-X-X&X{.l.l.}.&XU {.*Xh.k.J v *.eX-.I J o               ",
"              ' T R T #.9.R _.{.].U f.#.t.y.I 7.0.0.g.j.n.`.`.{.{.%X=X-X=X;X{.'.l.l.;X<.l.f.{.-X-X<.*.tX-.L J @ c               ",
"                S T R T ' f.I J m K D Y f.I 5.5.T 0.0.#.g.`.{.}.%X=X=Xm.m.l.`.'.*.k.;X`.U N J U C *.tX-.L J * 4                 ",
"                  N D T T T f.7.T $.g.j.y.U 9.0.*.L g.#.R f.{.%X=X-X'.z.0.f.[.j.l.l.g.-X&X{.N m l.eX-.L J * =                   ",
"                    m I T T R f.f.' ' *.V 7.' ' R 9.g.-.7.0.;X=X=X&Xn.9.9.{.'.`.*.L Y f.l.;.P #X|.' L J * #                     ",
"                      V D I #.$.0.).t.#.0.0.7.R #.Y 9.' 7.' f.v.v.g.z.f.*.Y l.[.;X`.L N m l.tXh.Y L J $ -                       ",
"                        S G $.$.7.0.l.{.U.9.S G J n.f.5.#.k.).k.k.f.`.x.'.j.7.*.<.*.S k.yXQ.*.*.L S + c                         ",
"                          { z { 0.y.y.v.].%XOX`.`.`.7.5.H %X-X%X;X`.l.9.'.`.*.Y 9.).iX|.t.*.Y U l +                             ",
"                              n F y.j.c.n.U.{.=X0X7XP.P.-X-X&X;X).l.l.f.;.i.oXuXtX.X9.9.*.Y L $ 5                               ",
"                                  l ) P.`.`.{.{.%X=X0XuXsXgXhXhXdXdXsXsXyX2X|.l.f.9.9.*.Y & ,                                   ",
"                                    _ c Z L.OXOX&X-X-X-X-X-X&X&X%X;X{.`.l.l.j.f.9.f.J % =                                       ",
"                                          b c ! !.qX8X-X=X=X&X%X;X{.`.).l.).f.H - % 9                                           ",
"                                                G z 9 t A ^ ] [ ! ! B 7 5 - - B                                                 ",
"                                                                                                                                "
};
