/* XPM */
static char *_2c458ed221b4a239fd85e98314f9580DKLNR7OkJX7zoL9f[] = {
/* columns rows colors chars-per-pixel */
"64 64 193 2 ",
"   c None",
".  c #0B0709",
"X  c #0D0A0C",
"o  c #090606",
"O  c #150C0C",
"+  c #180E0E",
"@  c #1B120D",
"#  c #110F11",
"$  c #141115",
"%  c #1B1313",
"&  c #17151A",
"*  c #1A161D",
"=  c #1D191E",
"-  c #22140F",
";  c #211612",
":  c #241914",
">  c #2B1C16",
",  c #231B1B",
"<  c #251A19",
"1  c #322217",
"2  c #34211A",
"3  c #3C251D",
"4  c #382A1B",
"5  c #1E1A22",
"6  c #1F1D29",
"7  c #221E26",
"8  c #291F25",
"9  c #221F29",
"0  c #232026",
"q  c #2C2525",
"w  c #25232C",
"e  c #2A252E",
"r  c #2E292B",
"t  c #3E2621",
"y  c #3B2C22",
"u  c #322C2C",
"i  c #3A2A2E",
"p  c #332728",
"a  c #36302F",
"s  c #2A2631",
"d  c #2D2935",
"f  c #2F2C39",
"g  c #262433",
"h  c #332C34",
"j  c #3C2D31",
"k  c #322D3A",
"l  c #353136",
"z  c #3B3435",
"x  c #34313D",
"c  c #3B343C",
"v  c #3F383A",
"b  c #47251F",
"n  c #4A2B1F",
"m  c #402D1E",
"M  c #41301F",
"N  c #442C23",
"B  c #4C2B22",
"V  c #4A2620",
"C  c #522D23",
"Z  c #582E26",
"A  c #443323",
"S  c #4B3223",
"D  c #543126",
"F  c #553429",
"G  c #5A352A",
"H  c #5C392C",
"J  c #563A26",
"K  c #452E30",
"L  c #46353C",
"P  c #4B3E39",
"I  c #493834",
"U  c #593C37",
"Y  c #64352B",
"T  c #653A2E",
"R  c #643C32",
"E  c #683933",
"W  c #723F36",
"Q  c #274213",
"!  c #33461A",
"~  c #157F0F",
"^  c #1D6719",
"/  c #196814",
"(  c #1A7416",
")  c #127F10",
"_  c #266C1B",
"`  c #257A1D",
"'  c #3B7D2D",
"]  c #5D472A",
"[  c #47403F",
"{  c #5D4A34",
"}  c #594838",
"|  c #624C2C",
" . c #724B2B",
".. c #6B532D",
"X. c #6A4435",
"o. c #6C473A",
"O. c #624B3C",
"+. c #6A4936",
"@. c #734B3C",
"#. c #764839",
"$. c #695336",
"%. c #66533B",
"&. c #745A34",
"*. c #795D32",
"=. c #785738",
"-. c #416628",
";. c #427328",
":. c #517A34",
">. c #7C6133",
",. c #7B6139",
"<. c #657A3B",
"1. c #373441",
"2. c #3C3945",
"3. c #4E3F46",
"4. c #534344",
"5. c #594945",
"6. c #614C4E",
"7. c #754E41",
"8. c #7B4E40",
"9. c #615042",
"0. c #7A5848",
"q. c #664E53",
"w. c #777A45",
"e. c #81503E",
"r. c #816533",
"t. c #856837",
"y. c #896B3C",
"u. c #825241",
"i. c #8A5649",
"p. c #855B4C",
"a. c #8C5C4C",
"s. c #885547",
"d. c #98574E",
"f. c #A45F5D",
"g. c #93614F",
"h. c #8A675A",
"j. c #9B6555",
"k. c #966B53",
"l. c #916553",
"z. c #8C7653",
"x. c #9F715E",
"c. c #A8675A",
"v. c #A5765C",
"b. c #A67661",
"n. c #AB7463",
"m. c #AC7964",
"M. c #B37B65",
"N. c #BA7C66",
"B. c #B87C6A",
"V. c #C17B6C",
"C. c #29821A",
"Z. c #398328",
"A. c #40852D",
"S. c #458832",
"D. c #7A8D4D",
"F. c #988356",
"G. c #A08861",
"H. c #B2816E",
"J. c #BA836B",
"K. c #B88A68",
"L. c #AA887D",
"P. c #B78876",
"I. c #B09670",
"U. c #96A162",
"Y. c #C3836E",
"T. c #C28C73",
"R. c #CA8E7A",
"E. c #C08371",
"W. c #D08F75",
"Q. c #CA927B",
"!. c #C79179",
"~. c #D2947C",
"^. c #C49481",
"/. c #CF9A83",
"(. c #D69A86",
"). c #CEAC87",
"_. c #D4A284",
"`. c #D4A38C",
"'. c #DCA68C",
"]. c #DFA88D",
"[. c #D6A786",
"{. c #DEAA91",
"}. c #D5A590",
"|. c #E1AA8E",
" X c #E3AB92",
".X c #ECAD94",
"XX c #E5B297",
"oX c #EBB49A",
"OX c #E9B49A",
"+X c #F3BCA3",
"@X c #F4BEA8",
"#X c #EEC4A9",
"$X c #F5C2AB",
/* pixels */
"                                                                                                                                ",
"                                                                                                                                ",
"                                                                                                                                ",
"                                                                                                                                ",
"                                                    r.r.r.r.r.r.r.r.r.r.r.r.                                                    ",
"                                            r.r.r.r.r.r.r.r.r.r.r.r.r.r.r.r.r.r.r.r.                                            ",
"                                        r.r.r.r.r.r.r.r.r.r.r.r.r.r.r.r.r.r.r.r.r.r.r.r.                                        ",
"                                    r.r.r.r.r.r.r.r.r.r.r.r.r.r.r.r.r.r.r.r.r.r.r.r.r.r.r.r.                                    ",
"                                r.r.r.r.r.r.r.r.r.r.r.r.r.r.r.r.r.r.r.r.r.r.r.r.r.r.r.r.r.r.r.r.                                ",
"                              r.r.r.r.r.r.r.r.r.r.r.r.r.r.r.r.r.r.r.r.r.r.r.r.r.r.r.r.r.r.r.r.r.r.                              ",
"                            r.r.r.r.r.r.r.r.r.r.r.r.r.r.r.r.r.r.r.r.r.r.r.r.r.r.r.r.r.r.r.r.r.r.r.r.                            ",
"                          r.r.r.r.r.r.r.r.r.r.r.r.r.r.r.r.r.r.r.r.r.r.r.r.r.r.r.r.r.r.r.r.r.r.r.r.r.r.                          ",
"                        r.r.r.r.r.r.r.r.r.r.r.r.r.r.r.r.| N m m A J $.r.r.r.r.r.r.r.r.r.r.r.r.r.r.r.r.r.                        ",
"                      r.r.r.r.r.r.r.r.r.r.r.r.r.r.r.*.4 ; - @ @ % > y A *.r.r.r.r.r.r.r.r.r.r.r.r.r.r.r.r.                      ",
"                    r.r.r.r.r.r.r.r.r.r.r.r.r.r.r.r.M ; @ + @ ; : > > % 1 r.r.r.r.r.r.r.r.r.r.r.r.r.r.r.r.r.                    ",
"                  r.r.r.r.r.r.r.r.r.r.r.r.r.r.r.r...; @ @ - 2 3 y N N t > ..r.r.r.r.r.r.r.r.r.r.r.r.r.r.r.r.r.                  ",
"                r.r.r.r.r.r.r.r.r.r.r.r.r.r.r.r.r.S @ > D @.n.R./.^.`.|.m.J r.r.r.r.r.r.r.r.r.r.r.r.r.r.r.r.r.                  ",
"                r.r.r.r.r.r.r.r.r.r.r.r.r.r.r.r.r.1 : A p.g.n.~..X+X$X$X.X7.r.r.r.r.r.r.r.r.r.r.r.r.r.r.r.r.r.r.                ",
"              r.r.r.r.r.r.r.r.r.r.r.r.r.r.r.r.r.r.> > A @.k.v.W. X+X$X+X.Xm.&.r.r.r.r.r.r.r.r.r.r.r.r.r.r.r.r.r.r.              ",
"              r.r.r.r.r.r.r.r.r.r.r.r.r.r.r.r.r.>.> 2 F +.a.G.(.oX+X$X#XoXQ.=.r.r.r.r.r.r.r.r.r.r.r.r.r.r.r.r.r.r.              ",
"            r.r.r.r.r.r.r.r.r.r.r.r.r.r.r.r.r.r.>.: 3 +.X._ ( :.B.(.).Z.;.I.r.r.r.r.r.r.r.r.r.r.r.r.r.r.r.r.r.r.r.r.            ",
"            r.r.r.r.r.r.r.r.r.r.r.r.r.r.r.r.r.r.>.> 3 o.H / C.Q B j.w.~ ;.z.r.r.r.r.r.r.r.r.r.r.r.r.r.r.r.r.r.r.r.r.            ",
"            r.r.r.r.r.r.r.r.r.r.r.r.r.r.r.r.r.r. .H N X.V ! / / V m.k.^ _ w.y.r.r.r.r.r.r.r.r.r.r.r.r.r.r.r.r.r.r.r.            ",
"          r.r.r.r.r.r.r.r.r.r.r.r.r.r.r.r.r.r.r. .Z X.@.E _ C.( 0.!.U.Z.C.D.y.r.r.r.r.r.r.r.r.r.r.r.r.r.r.r.r.r.r.r.r.          ",
"          r.r.r.r.r.r.r.r.r.r.r.r.r.r.r.r.r.r.r.=.Y @.#.8.w.` w.e.N.].Z.S.).y.r.r.t.r.r.r.r.r.r.r.r.r.r.r.r.r.r.r.r.r.          ",
"          r.r.r.r.r.r.r.r.r.r.r.r.r.r.r.r.r.r.r.r.#.@.o.@.x.F.s.s.E..XK.[..Xt.r.r.r.r.r.r.r.r.r.r.r.r.r.r.r.r.r.r.r.r.          ",
"        r.r.r.r.r.r.r.r.r.r.r.r.r.r.r.r.r.r.r.r.t.*.=.X.H W u.G V G i.Y.c.M.t.r.r.r.r.r.r.r.r.r.r.r.r.r.r.r.r.r.r.r.r.          ",
"        r.r.r.r.r.r.r.r.r.r.r.r.r.r.r.r.r.r.r.r.r.r.=.X.J E E F N E B.J.M.P.r.r.r.r.r.r.r.r.r.r.r.r.r.r.r.r.r.r.r.r.r.r.        ",
"        r.r.r.r.r.r.r.r.r.r.r.r.r.r.r.r.r.r.r.>.| | +.H F H F b Y f.c.N.N.v.r.r.r.r.r.r.r.r.r.r.r.r.r.r.r.r.r.r.r.r.r.r.        ",
"        r.r.r.r.r.r.r.r.r.r.r.r.r.r.r.r.r.r.} , O O S D D D H E W d.V.W.N.y.r.r.r.r.r.r.r.r.r.r.r.r.r.r.r.r.r.r.r.r.r.r.        ",
"        r.r.r.r.r.r.r.r.r.r.r.r.r.r.r.r.r.$.c = , O N D B D F X.i.M.~.~.0.$.r.r.r.r.r.r.r.r.r.r.r.r.r.r.r.r.r.r.r.r.r.r.        ",
"        r.r.r.r.r.r.r.r.r.r.r.r.r.r.r.r.r.P h e 8 > C F B D F R i.B.R.b.% 8 { r.r.r.r.r.r.r.r.r.r.r.r.r.r.r.r.r.r.r.r.r.        ",
"        r.r.r.r.r.r.r.r.>.t.>.>.r.r.r.>.A r s h k 3 n G D n C Z Z U #.l.+ + 8 &.>.r.r.r.r.r.r.r.r.r.r.r.r.r.r.r.r.r.r.r.        ",
"        r.r.r.r.r.r.r.r.t.t.>.>.r.>.5.c & 8 s 9 h z n G G D C C C Y m.b.; + % L t.>.r.r.r.r.r.r.r.r.r.r.r.r.r.r.r.r.r.r.        ",
"        r.r.r.r.r.r.r.r.>.t.>.%.4.x h d $ * h 5 e L 7.@.G D C Z Y g.J.M.F < $ 8 &.t.r.r.r.r.r.r.r.r.r.r.r.r.r.r.r.r.r.r.        ",
"        r.r.r.r.r.r.r.r.>.>.l f s f d s & $ s 5 w k h.v.e.Y D E u.n.T.N.0.8 e & { r.r.r.r.r.r.r.r.r.r.r.r.r.r.r.r.r.r.r.        ",
"        t.t.>.r.r.r.r.r.r.>.q r e d d g * X s w * s 3.`.!.x.k.b.P.(. X(.x.i d * v { t.>.r.r.>.t.r.r.r.r.r.r.r.r.r.r.r.r.        ",
"          >.t.>.r.r.r.r.>.>.w w w 0 w e 7 . w d * 9 s L.OXXXXXXXoXOXoXoXP.i h 7 x x I ,.r.r.r.t.r.r.r.r.r.r.r.r.r.r.r.          ",
"          t.r.r.r.r.r.r.r.>.w w w 0 0 w s . & d 7 * e 3.XXXXoXoXoXoXoXOXp.i d 8 c x d 1.%.>.t.>.r.r.r.r.r.r.r.r.r.r.r.          ",
"          r.r.r.r.r.r.r.r.<.w w 0 7 5 0 s O . s g * 8 r P. XoXoXoXoX+X{.E i 1.s x x e r 2.4.>.>.r.r.r.r.r.r.r.r.r.r.r.          ",
"          t.>.t.r.r.r.r.r.>.0 w 6 0 5 5 w & o = g = 5 0 4.]. XoXoXoXoX/.U d x s k k s g 2.1.I >.r.r.r.r.r.r.r.r.r.r.r.          ",
"            >.t.r.r.r.r.>.>.0 0 w w 5 5 0 6 X X s 6 * 0 e ^.|. X|..XOXH.K f x d d k e s 2.x f { r.r.r.r.r.r.r.r.r.r.            ",
"            t.>.r.r.r.r.>.>.@ 0 w w 0 5 = 6 0 o * d = 5 w 6.{.|.].].].p.i f h d d f w d 1.f x l r.r.r.r.r.r.r.r.r.r.            ",
"              r.r.r.r.r.r.>.# = 6 w 6 0 = 6 w = . e 7 5 5 e L.|. X].T.U s x s f d d w f x f f s $.r.r.r.r.r.r.r.r.              ",
"              t.>.r.r.r.>.>.# $ 6 w w 0 5 5 6 w # $ 0 = = w L }.].Q.l.h f f d e d w g 2.x d g s z >.t.>.r.r.r.r.r.              ",
"                t.t.r.r.>.>.0 # & w w q 5 * 6 0 r X & 5 = 5 0 q.`.H.L e d s r d w w d 1.x d 6 d f } >.t.r.r.r.r.                ",
"                t.>.>.t.>.>.u : = r a u u r q q u u % q p q q a h.O.l l l a a z h u z v z l q z z [ r.r.r.r.r.r.                ",
"                  >.t.t.>.>.t.>.>.>.>.t.>.>.>.>.r.r.r.r.r.r.r.r.>.t.r.r.r.r.>.r.>.r.r.r.>.t.>.r.r.r.r.r.r.r.r.                  ",
"                  t.r.r.r.r.r.r.r.r.r.r.r.r.r.r.r.r.r.r.r.r.r.r.r.r.r.r.r.r.r.r.r.r.r.r.r.r.r.r.r.r.r.r.r.r.                    ",
"                    t.>.r.r.r.r.r.r.r.r.r.r.r.r.r.r.r.r.r.r.r.r.r.r.r.r.r.r.r.r.r.r.r.r.r.r.r.r.r.r.r.r.r.r.                    ",
"                      t.r.r.r.r.r.r.r.r.r.r.r.r.r.r.r.r.r.r.r.r.r.r.r.r.r.r.r.r.r.r.r.r.r.r.r.r.r.r.r.r.r.                      ",
"                        r.r.r.r.r.r.r.r.r.r.r.r.r.r.r.r.r.r.r.r.r.r.r.r.r.r.r.r.r.r.r.r.r.r.r.r.r.r.r.r.                        ",
"                          t.>.t.r.r.r.r.r.r.r.r.r.r.r.r.r.r.r.r.r.r.r.r.r.r.r.r.r.r.r.r.r.r.r.r.r.r.r.                          ",
"                            r.r.r.r.r.r.r.r.r.r.r.r.r.r.r.r.r.r.r.r.r.r.r.r.r.r.r.r.r.r.r.r.r.r.r.r.                            ",
"                                r.r.r.r.r.r.r.r.r.r.r.r.r.r.r.r.r.r.r.r.r.r.r.r.r.r.r.r.r.r.r.r.                                ",
"                                  r.r.r.r.r.r.r.r.r.r.r.r.r.r.r.r.r.r.r.r.r.r.r.r.r.r.r.r.r.r.                                  ",
"                                      r.r.r.r.r.r.r.r.r.r.r.r.r.r.r.r.r.r.r.r.r.r.r.r.r.r.                                      ",
"                                          r.r.r.r.r.r.r.r.r.r.r.r.r.r.r.r.r.r.r.r.r.r.                                          ",
"                                                r.r.r.r.r.r.r.r.r.r.r.r.r.r.r.r.                                                ",
"                                                        r.r.r.r.r.r.r.r.                                                        ",
"                                                                                                                                ",
"                                                                                                                                ",
"                                                                                                                                ",
"                                                                                                                                "
};
