<?xml version="1.0" standalone="no"?>
<!DOCTYPE svg PUBLIC "-//W3C//DTD SVG 20010904//EN"
 "http://www.w3.org/TR/2001/REC-SVG-20010904/DTD/svg10.dtd">
<svg version="1.0" xmlns="http://www.w3.org/2000/svg"
 width="1024.000000pt" height="1024.000000pt" viewBox="0 0 1024.000000 1024.000000"
 preserveAspectRatio="xMidYMid meet">

<g transform="translate(0.000000,1024.000000) scale(0.100000,-0.100000)"
fill="#000000" stroke="none">
<path d="M4820 9519 c-41 -4 -109 -12 -150 -18 -41 -6 -109 -10 -151 -11 -41
0 -95 -7 -120 -15 -24 -8 -79 -19 -122 -25 -43 -5 -86 -14 -95 -19 -9 -5 -46
-12 -82 -16 -36 -4 -77 -13 -92 -21 -14 -7 -53 -17 -85 -20 -32 -4 -75 -15
-95 -25 -21 -11 -50 -19 -65 -19 -15 0 -36 -7 -46 -15 -11 -7 -38 -17 -60 -20
-23 -4 -46 -11 -52 -15 -15 -12 -165 -70 -180 -70 -7 0 -18 -7 -25 -15 -7 -8
-22 -15 -33 -15 -17 0 -102 -35 -147 -61 -8 -5 -26 -14 -40 -19 -14 -6 -32
-14 -40 -19 -8 -6 -64 -35 -125 -67 -161 -83 -281 -155 -433 -262 -26 -17 -63
-43 -82 -56 -44 -29 -245 -189 -325 -258 -118 -102 -402 -397 -499 -519 -55
-68 -106 -131 -114 -139 -7 -8 -23 -30 -35 -49 -38 -59 -71 -107 -117 -171
-25 -34 -54 -77 -65 -95 -39 -65 -139 -240 -157 -275 -10 -19 -22 -42 -27 -50
-23 -37 -101 -209 -101 -221 0 -8 -6 -23 -14 -34 -7 -11 -17 -31 -21 -45 -10
-33 -32 -88 -52 -125 -8 -16 -21 -52 -29 -80 -16 -63 -41 -141 -59 -181 -7
-17 -17 -53 -20 -80 -4 -27 -13 -60 -20 -74 -7 -14 -16 -50 -20 -80 -4 -30
-13 -70 -21 -89 -8 -18 -14 -45 -14 -60 0 -15 -7 -51 -15 -81 -9 -30 -20 -100
-25 -155 -6 -55 -17 -133 -25 -174 -12 -57 -15 -145 -13 -410 0 -202 4 -310 8
-271 4 36 8 118 9 183 0 65 7 150 15 190 8 40 17 128 21 197 3 69 12 150 20
180 7 30 16 78 20 105 3 28 12 70 20 95 7 25 19 76 25 115 6 38 15 74 19 80 5
5 13 35 19 65 6 30 17 75 25 100 8 25 19 63 25 85 12 48 76 227 97 272 8 17
15 34 15 38 0 7 7 22 57 135 46 101 146 304 191 385 48 87 55 98 158 255 38
58 72 113 76 123 4 10 34 49 65 87 32 38 75 91 96 119 89 118 223 267 355 394
45 43 85 83 89 90 9 13 89 86 139 127 17 14 60 50 94 80 35 30 73 62 86 70 13
8 61 43 106 78 113 85 262 182 448 292 22 13 379 189 425 210 85 38 121 53
160 65 22 7 65 23 95 34 104 41 205 73 260 83 30 5 60 14 66 19 6 5 38 14 70
20 33 5 75 16 94 23 19 7 66 17 105 21 38 4 80 12 95 17 14 6 68 17 120 24 52
8 118 19 145 24 28 6 166 13 308 16 209 6 257 10 257 21 0 7 -6 15 -12 17 -27
9 -307 12 -378 5z"/>
<path d="M4770 9131 c-28 -5 -31 -8 -17 -14 28 -11 117 -9 117 3 0 6 -6 10
-12 10 -7 0 -22 2 -33 4 -11 2 -36 1 -55 -3z"/>
<path d="M5448 9105 c-4 -17 -1 -25 8 -25 8 0 14 6 14 13 0 8 10 19 23 25 21
10 20 11 -9 11 -26 1 -33 -3 -36 -24z"/>
<path d="M5688 9083 c6 -2 18 -2 25 0 6 3 1 5 -13 5 -14 0 -19 -2 -12 -5z"/>
<path d="M6447 8900 c-7 -26 0 -29 48 -20 22 4 31 8 20 9 -11 0 -30 8 -42 16
-19 13 -21 13 -26 -5z"/>
<path d="M4785 8851 c-17 -7 -16 -9 13 -16 36 -7 48 -3 37 14 -7 13 -21 13
-50 2z"/>
<path d="M3586 8834 c-11 -27 -7 -31 38 -43 57 -14 56 -14 56 8 0 38 -81 68
-94 35z"/>
<path d="M3695 8770 c-4 -6 3 -10 14 -10 25 0 27 6 6 13 -8 4 -17 2 -20 -3z"/>
<path d="M4190 8771 c-12 -9 -12 -11 2 -16 23 -9 83 -2 83 10 0 13 -66 18 -85
6z"/>
<path d="M3393 8745 c-27 -26 -21 -35 23 -35 39 0 49 12 34 40 -13 25 -29 24
-57 -5z"/>
<path d="M4110 8730 c-11 -7 -7 -10 18 -10 17 0 32 5 32 10 0 13 -30 13 -50 0z"/>
<path d="M6648 8669 c-4 -9 -26 -26 -50 -38 -49 -23 -147 -29 -194 -10 -33 12
-74 4 -74 -14 0 -9 33 -12 138 -11 162 1 162 1 162 15 0 7 7 17 16 24 9 6 14
20 12 31 -3 16 -5 17 -10 3z"/>
<path d="M4800 8579 c-152 -8 -140 -6 -140 -19 0 -10 307 -7 317 4 19 19 -29
23 -177 15z"/>
<path d="M5487 8574 c-14 -14 6 -24 48 -24 45 0 67 13 39 24 -21 8 -79 8 -87
0z"/>
<path d="M4400 8530 c-23 -15 -4 -23 36 -15 28 5 34 9 23 16 -18 11 -40 11
-59 -1z"/>
<path d="M7151 8520 c-13 -11 -29 -20 -37 -20 -7 0 -21 -15 -30 -32 -9 -18
-23 -37 -30 -41 -16 -9 -19 -47 -5 -47 5 0 12 8 15 18 10 31 110 94 169 107
40 8 28 30 -19 32 -27 2 -46 -3 -63 -17z"/>
<path d="M5892 8488 c5 -14 61 -23 86 -13 14 5 14 7 2 15 -23 15 -92 12 -88
-2z"/>
<path d="M4072 8435 c-47 -26 -48 -35 -4 -35 23 0 42 4 42 9 0 5 7 17 16 25
14 15 13 16 -8 15 -13 -1 -34 -7 -46 -14z"/>
<path d="M2850 8425 c-8 -10 -9 -19 -4 -24 12 -11 106 -31 116 -25 17 11 7 34
-22 49 -37 19 -74 19 -90 0z"/>
<path d="M6183 8423 c-22 -8 -14 -21 17 -28 16 -3 37 -2 47 4 16 9 15 11 -10
20 -30 12 -35 12 -54 4z"/>
<path d="M7400 8375 c-10 -12 -10 -15 4 -15 9 0 16 7 16 15 0 8 -2 15 -4 15
-2 0 -9 -7 -16 -15z"/>
<path d="M7010 8345 c0 -14 2 -25 4 -25 2 0 6 11 8 25 3 14 1 25 -3 25 -5 0
-9 -11 -9 -25z"/>
<path d="M2686 8301 c-17 -19 -16 -21 23 -45 22 -14 45 -26 51 -26 5 0 10 -6
10 -14 0 -17 18 -31 27 -22 11 11 -41 105 -65 115 -29 14 -26 14 -46 -8z"/>
<path d="M3687 8277 c-34 -28 -34 -37 -1 -37 28 0 98 43 87 53 -14 15 -61 6
-86 -16z"/>
<path d="M5083 8293 c-23 -9 -14 -21 20 -26 17 -2 43 0 57 5 24 10 24 11 5 18
-22 10 -63 11 -82 3z"/>
<path d="M2568 8150 c14 -25 23 -30 57 -30 l40 1 -31 13 c-17 8 -34 21 -37 30
-4 9 -15 16 -26 16 -19 0 -19 -1 -3 -30z"/>
<path d="M2820 8161 c0 -11 5 -23 10 -26 6 -3 10 3 10 14 0 11 -4 23 -10 26
-5 3 -10 -3 -10 -14z"/>
<path d="M7563 8149 c-44 -31 -133 -129 -133 -147 0 -5 -7 -12 -15 -16 -15 -5
-22 -56 -7 -56 4 0 18 17 32 36 23 32 46 57 117 120 13 12 53 30 88 40 47 14
65 23 63 34 -2 11 -18 16 -53 17 -41 1 -57 -3 -92 -28z"/>
<path d="M2900 8063 c0 -13 5 -23 10 -23 13 0 13 11 0 30 -8 12 -10 11 -10 -7z"/>
<path d="M2361 8035 c-46 -49 -20 -58 107 -39 41 6 40 13 -4 42 -45 28 -73 28
-103 -3z"/>
<path d="M2940 8010 c0 -5 5 -10 11 -10 5 0 7 5 4 10 -3 6 -8 10 -11 10 -2 0
-4 -4 -4 -10z"/>
<path d="M6970 8010 c0 -5 4 -10 10 -10 5 0 18 -10 29 -21 14 -15 36 -23 68
-26 59 -5 97 13 101 47 l2 25 -16 -22 c-21 -29 -75 -31 -127 -3 -40 22 -67 26
-67 10z"/>
<path d="M3083 7908 c-13 -6 -23 -20 -23 -30 0 -15 5 -18 23 -12 32 10 47 24
40 40 -6 16 -10 16 -40 2z"/>
<path d="M7840 7899 c0 -7 -10 -22 -22 -34 -13 -12 -33 -35 -46 -50 -33 -39
-109 -97 -163 -123 -56 -27 -169 -31 -189 -7 -14 17 -50 20 -50 5 0 -5 4 -10
10 -10 5 0 19 -10 30 -22 18 -20 34 -24 104 -26 77 -4 87 -2 137 27 67 38 139
98 139 116 0 8 6 18 13 22 18 11 57 77 57 97 0 9 -4 16 -10 16 -5 0 -10 -5
-10 -11z"/>
<path d="M2257 7814 c-12 -12 15 -50 53 -72 50 -28 120 -29 203 -1 43 15 78
20 115 17 62 -5 73 4 41 38 -26 28 -75 32 -118 9 -52 -26 -164 -39 -217 -25
-25 7 -48 19 -51 27 -5 14 -16 17 -26 7z"/>
<path d="M8105 7727 c-30 -18 -147 -116 -235 -197 -15 -14 -40 -37 -56 -52
-44 -40 -54 -55 -54 -78 0 -25 4 -25 33 3 14 12 57 49 97 82 40 33 85 71 99
84 52 47 107 89 137 104 35 18 50 52 27 61 -19 8 -24 7 -48 -7z"/>
<path d="M1981 7621 c-19 -12 -6 -28 30 -36 28 -6 78 -38 246 -154 41 -29 68
-41 80 -37 14 6 13 10 -13 34 -29 26 -70 57 -103 77 -9 6 -23 16 -31 22 -92
78 -131 103 -162 103 -18 0 -39 -4 -47 -9z"/>
<path d="M2641 7530 c-29 -24 -76 -26 -85 -4 -4 9 -9 15 -12 12 -2 -3 0 -17 5
-32 9 -22 16 -26 50 -26 22 0 44 6 48 13 4 7 21 18 36 25 15 7 25 17 22 22
-10 16 -38 11 -64 -10z"/>
<path d="M3616 7541 c-4 -6 -5 -14 -2 -19 6 -10 96 -2 96 9 0 5 -6 9 -14 9 -7
0 -27 3 -44 6 -17 4 -32 1 -36 -5z"/>
<path d="M6502 7530 c-12 -12 -22 -27 -22 -35 0 -12 -34 -71 -58 -100 -13 -16
-31 -73 -25 -79 12 -12 22 -6 29 17 4 12 15 33 25 46 11 13 19 32 19 43 0 10
6 21 14 24 8 3 20 18 26 34 14 34 55 52 88 37 16 -7 26 -7 33 0 20 20 -2 33
-55 33 -39 0 -58 -5 -74 -20z"/>
<path d="M8360 7398 c0 -25 3 -29 10 -18 13 20 13 50 0 50 -5 0 -10 -15 -10
-32z"/>
<path d="M7653 7406 c9 -7 17 -18 17 -23 0 -18 25 -32 40 -23 8 5 12 11 10 13
-44 33 -65 47 -74 47 -6 0 -3 -7 7 -14z"/>
<path d="M8120 7362 c-20 -9 -42 -23 -50 -30 -8 -7 -37 -27 -65 -45 -62 -40
-94 -75 -87 -99 4 -16 6 -16 34 5 16 12 37 27 47 32 57 34 141 100 160 125 25
34 14 37 -39 12z"/>
<path d="M1789 7351 l-24 -19 28 -11 c16 -6 33 -11 38 -11 9 0 88 -48 99 -60
3 -3 26 -18 52 -33 25 -15 67 -42 92 -62 25 -19 57 -37 70 -41 14 -3 30 -12
37 -20 21 -25 111 -18 158 13 23 15 41 30 41 35 0 13 -35 9 -56 -7 -50 -38
-178 0 -256 78 -10 9 -25 17 -33 17 -9 0 -18 7 -22 16 -3 8 -15 20 -27 25 -11
5 -50 29 -85 54 -35 25 -69 45 -76 45 -7 0 -23 -9 -36 -19z"/>
<path d="M8317 7318 c-2 -18 -3 -35 0 -38 7 -8 23 24 23 48 0 34 -17 26 -23
-10z"/>
<path d="M6344 7253 c-16 -32 -36 -66 -46 -76 -10 -10 -18 -29 -18 -42 0 -15
-6 -25 -14 -25 -8 0 -19 -14 -25 -30 -5 -17 -17 -38 -26 -46 -8 -8 -15 -23
-15 -33 0 -10 -9 -26 -19 -35 -11 -10 -22 -28 -25 -42 -4 -13 -11 -24 -16 -24
-6 0 -10 -6 -10 -14 0 -8 -11 -28 -25 -44 -14 -17 -25 -36 -25 -44 0 -8 -9
-25 -20 -38 -11 -13 -20 -29 -20 -37 0 -7 -6 -16 -14 -19 -8 -3 -17 -17 -21
-32 -4 -15 -12 -34 -19 -42 -7 -8 -26 -40 -42 -70 -16 -30 -33 -58 -39 -62 -5
-4 0 -8 12 -8 22 0 34 15 69 90 9 19 20 37 24 40 7 5 20 28 57 100 10 19 24
41 30 48 7 7 16 24 19 38 3 13 10 24 14 24 5 0 12 10 16 23 3 12 15 30 25 40
11 10 19 29 19 42 0 16 6 25 15 25 9 0 18 12 22 30 3 17 14 35 24 41 11 5 19
21 19 34 0 14 9 33 20 42 11 10 20 24 20 31 0 8 9 25 20 39 11 14 20 31 20 37
0 6 9 19 20 29 20 17 28 67 11 67 -5 0 -21 -26 -37 -57z"/>
<path d="M5017 7266 c-4 -10 -5 -21 -2 -24 9 -9 17 6 13 25 -3 17 -4 17 -11
-1z"/>
<path d="M8287 7273 c-4 -3 -7 -16 -7 -27 0 -19 1 -19 17 -3 12 11 14 20 7 27
-6 6 -13 7 -17 3z"/>
<path d="M7840 7193 c0 -23 15 -39 24 -25 3 5 -1 18 -9 28 -14 18 -14 18 -15
-3z"/>
<path d="M4978 7184 c-5 -4 -8 -19 -8 -33 1 -23 2 -24 11 -8 11 19 9 53 -3 41z"/>
<path d="M8450 7154 c-30 -20 -64 -40 -75 -45 -11 -5 -40 -25 -65 -43 -25 -19
-49 -35 -54 -35 -11 -1 -67 -38 -135 -88 -24 -18 -52 -33 -62 -33 -30 0 -32
-19 -2 -31 32 -12 66 4 213 101 140 94 192 126 243 151 55 27 65 38 46 50 -26
16 -54 9 -109 -27z"/>
<path d="M4937 7103 c-11 -10 -8 -53 3 -53 6 0 10 14 10 30 0 31 -2 35 -13 23z"/>
<path d="M1630 7060 c-21 -13 -10 -21 100 -70 52 -24 102 -48 110 -55 8 -7 26
-16 40 -20 14 -4 32 -13 40 -19 24 -19 120 -66 136 -66 8 0 14 -4 14 -8 0 -9
90 -52 109 -52 9 0 8 5 -3 16 -9 8 -16 19 -16 24 0 5 -16 14 -35 20 -19 6 -35
15 -35 19 0 4 -17 15 -37 24 -21 9 -45 20 -53 25 -18 11 -56 31 -135 73 -33
17 -62 35 -65 39 -3 4 -16 11 -30 15 -14 4 -36 16 -49 26 -26 20 -67 24 -91 9z"/>
<path d="M4898 7014 c-5 -4 -8 -16 -8 -28 0 -14 3 -17 11 -9 6 6 9 19 7 28 -1
9 -6 13 -10 9z"/>
<path d="M4822 6835 c0 -16 2 -22 5 -12 2 9 2 23 0 30 -3 6 -5 -1 -5 -18z"/>
<path d="M4776 6752 c-4 -13 -5 -26 -2 -29 10 -11 18 4 14 29 l-4 23 -8 -23z"/>
<path d="M4737 6676 c-4 -15 -6 -31 -2 -34 10 -10 16 6 13 35 l-3 28 -8 -29z"/>
<path d="M4695 6577 c-4 -10 -5 -21 -1 -24 10 -10 18 4 13 24 -4 17 -4 17 -12
0z"/>
<path d="M9831 6564 c0 -11 3 -14 6 -6 3 7 2 16 -1 19 -3 4 -6 -2 -5 -13z"/>
<path d="M7595 6500 c-4 -6 -21 -17 -38 -25 -18 -8 -54 -28 -82 -44 -27 -17
-57 -33 -65 -37 -8 -5 -33 -20 -55 -35 -22 -14 -65 -39 -95 -54 -30 -16 -64
-37 -75 -46 -11 -9 -37 -22 -57 -28 -20 -7 -42 -19 -48 -27 -7 -7 -16 -14 -21
-14 -5 0 -31 -15 -57 -34 -27 -18 -57 -36 -68 -40 -10 -3 -42 -21 -69 -39 -28
-18 -65 -39 -82 -46 -18 -7 -33 -17 -33 -22 0 -4 -10 -11 -22 -15 -13 -3 -45
-21 -73 -40 -27 -18 -61 -37 -75 -43 -26 -11 -47 -24 -91 -53 -15 -9 -39 -20
-54 -24 -15 -4 -29 -12 -32 -19 -2 -7 -18 -19 -34 -25 -26 -11 -49 -37 -49
-54 0 -13 42 -5 68 12 33 23 138 84 172 100 14 7 39 21 55 32 17 11 46 27 65
36 19 9 37 20 40 23 6 9 233 140 300 173 14 7 38 23 53 35 16 13 33 23 39 23
5 0 33 16 62 35 29 19 58 35 64 35 10 0 65 33 97 57 6 5 26 16 45 26 19 9 47
25 62 35 53 34 138 82 147 82 5 0 14 7 21 15 17 20 57 19 69 -2 8 -14 12 -15
22 -6 9 9 8 18 -5 37 -13 21 -25 26 -56 26 -21 0 -42 -5 -45 -10z"/>
<path d="M9842 6480 c0 -19 2 -27 5 -17 2 9 2 25 0 35 -3 9 -5 1 -5 -18z"/>
<path d="M2551 6476 c-14 -15 -19 -26 -12 -31 14 -8 31 3 31 21 0 18 39 18 46
0 3 -8 20 -18 37 -21 18 -4 41 -15 52 -25 11 -10 41 -30 67 -43 26 -14 55 -32
64 -41 8 -9 26 -16 40 -16 13 0 24 -5 24 -10 0 -6 16 -18 35 -27 19 -9 35 -20
35 -24 0 -5 18 -14 40 -20 22 -7 40 -15 40 -19 0 -4 26 -20 58 -36 31 -16 65
-36 75 -46 10 -10 27 -18 38 -18 11 0 22 -7 25 -15 3 -8 21 -19 40 -25 19 -6
34 -15 34 -20 0 -5 10 -12 23 -15 12 -4 45 -23 74 -41 28 -19 56 -34 61 -34 6
0 23 -11 39 -23 15 -13 40 -27 56 -31 15 -3 27 -10 27 -15 0 -5 26 -21 58 -37
31 -15 64 -33 72 -40 18 -14 167 -94 175 -94 3 0 5 5 5 10 0 6 -7 10 -15 10
-8 0 -15 7 -15 15 0 9 -12 20 -26 25 -14 6 -32 17 -40 25 -9 8 -21 15 -28 15
-7 0 -21 9 -30 19 -10 11 -31 23 -47 26 -16 4 -29 11 -29 15 0 5 -18 15 -40
21 -22 7 -40 16 -40 20 0 5 -15 15 -32 24 -35 16 -59 30 -97 58 -13 9 -32 17
-42 17 -10 0 -23 9 -29 19 -5 11 -23 22 -39 26 -16 3 -32 13 -35 21 -3 8 -14
14 -25 14 -11 0 -26 6 -33 13 -14 14 -50 35 -105 62 -18 8 -33 20 -33 25 0 5
-18 14 -39 20 -21 5 -42 17 -45 25 -3 8 -15 15 -26 15 -11 0 -23 7 -26 15 -3
8 -22 17 -41 21 -19 4 -37 12 -40 20 -2 7 -20 18 -39 24 -19 6 -34 16 -34 21
0 5 -6 9 -14 9 -7 0 -25 11 -40 25 -15 14 -35 25 -44 25 -10 0 -25 9 -35 20
-9 11 -25 20 -36 20 -10 0 -24 7 -31 15 -19 23 -63 18 -89 -9z"/>
<path d="M4616 6423 c-4 -9 -2 -21 4 -27 7 -7 10 -2 10 17 0 31 -5 34 -14 10z"/>
<path d="M9878 6340 c3 -58 11 -104 20 -118 8 -12 16 -52 19 -90 3 -37 11 -80
18 -97 7 -16 16 -73 20 -125 4 -52 13 -120 20 -150 19 -76 40 -391 40 -590 0
-207 -21 -533 -40 -625 -8 -38 -19 -116 -25 -173 -5 -57 -14 -111 -19 -121 -6
-10 -15 -55 -20 -101 -6 -45 -16 -89 -22 -96 -6 -8 -15 -47 -19 -87 -5 -40
-15 -89 -23 -108 -8 -19 -20 -54 -26 -79 -7 -25 -18 -65 -26 -90 -13 -43 -22
-70 -68 -200 -10 -30 -27 -72 -38 -92 -10 -20 -19 -44 -19 -53 0 -9 -14 -49
-31 -88 -39 -89 -126 -276 -139 -299 -15 -26 -26 -50 -39 -78 -15 -34 -82
-154 -90 -160 -3 -3 -14 -21 -24 -40 -9 -19 -26 -48 -37 -65 -11 -16 -27 -43
-36 -60 -19 -33 -96 -147 -105 -155 -3 -3 -12 -16 -19 -30 -20 -38 -245 -338
-297 -395 -163 -183 -212 -235 -297 -320 -129 -127 -273 -258 -356 -323 -36
-29 -80 -64 -99 -79 -34 -28 -191 -145 -246 -183 -16 -11 -54 -39 -84 -60 -30
-22 -60 -40 -67 -40 -6 0 -17 -7 -24 -16 -8 -8 -27 -22 -44 -29 -17 -8 -40
-20 -51 -27 -82 -52 -124 -77 -147 -89 -52 -28 -264 -132 -338 -167 -41 -19
-91 -43 -111 -53 -20 -11 -45 -19 -54 -19 -10 0 -36 -8 -59 -19 -116 -52 -138
-61 -157 -61 -11 0 -33 -7 -49 -15 -16 -8 -67 -26 -112 -40 -46 -14 -103 -32
-128 -41 -25 -9 -72 -20 -105 -24 -33 -4 -73 -15 -90 -24 -16 -9 -48 -16 -70
-16 -22 -1 -58 -7 -80 -15 -22 -8 -82 -20 -134 -26 -51 -6 -105 -15 -120 -20
-24 -10 -149 -26 -366 -49 -118 -12 -751 -12 -835 0 -36 5 -121 17 -189 25
-69 9 -130 19 -135 24 -6 5 -51 11 -99 15 -49 4 -101 12 -115 18 -15 6 -57 14
-95 18 -37 4 -75 14 -85 22 -11 10 -48 17 -107 21 -74 4 -82 3 -45 -5 25 -5
50 -15 55 -22 6 -7 46 -16 95 -20 54 -4 89 -12 96 -20 6 -9 40 -17 85 -21 40
-4 93 -14 116 -21 23 -8 74 -18 113 -23 39 -5 77 -14 84 -20 7 -6 71 -13 142
-16 71 -3 188 -13 259 -21 202 -24 771 -8 978 26 122 21 185 33 268 51 48 10
101 19 118 19 18 0 45 7 60 15 16 8 62 18 104 23 42 6 86 17 99 26 12 9 35 16
50 16 15 0 50 9 78 20 28 11 61 20 73 20 12 0 31 6 42 14 11 7 36 18 55 24 75
23 153 52 164 62 7 5 31 12 54 16 23 3 47 13 53 20 6 8 17 14 23 14 6 0 34 11
61 25 28 13 57 25 65 25 8 1 38 14 65 31 28 16 61 33 75 39 14 6 41 19 61 30
20 11 44 20 53 20 9 0 19 6 22 14 3 8 19 18 35 21 16 4 32 11 35 17 4 5 21 17
38 24 17 8 63 35 101 59 39 25 79 49 90 54 11 5 54 32 95 60 41 29 96 66 123
83 26 17 47 34 47 38 0 4 15 13 33 21 17 7 35 18 39 25 5 7 32 28 60 47 29 19
64 47 77 61 14 14 29 26 34 26 5 0 20 10 33 23 27 26 40 37 119 103 70 58 372
359 430 428 22 27 54 64 72 83 18 19 47 55 65 80 18 24 50 65 71 89 20 25 37
48 37 52 0 4 15 22 32 41 18 19 39 47 48 62 8 15 32 51 52 81 112 161 135 196
147 226 7 17 17 32 22 32 4 0 11 10 15 22 3 12 21 43 39 68 18 25 36 57 40 71
4 13 16 35 26 48 11 13 19 29 19 36 0 7 6 18 14 24 8 7 18 27 22 44 3 18 10
37 15 43 14 18 99 188 99 199 0 6 8 26 18 45 11 19 22 48 26 64 4 15 13 34 20
42 7 7 16 32 20 55 4 24 11 48 16 54 4 5 23 55 41 110 18 55 38 109 44 120 7
11 16 40 19 64 4 24 13 56 21 72 8 15 15 43 15 61 0 18 9 50 20 71 11 20 20
56 20 79 0 24 8 72 19 108 19 65 43 202 66 380 7 52 17 113 23 135 29 118 19
1033 -12 1107 -9 21 -16 62 -16 92 0 29 -9 82 -19 117 -10 35 -22 100 -25 143
-3 44 -12 89 -20 101 -8 12 -17 57 -21 101 -4 43 -13 82 -19 86 -6 4 -16 31
-22 60 -11 49 -11 46 -6 -42z"/>
<path d="M4577 6343 c-11 -10 -8 -53 3 -53 6 0 10 14 10 30 0 31 -2 35 -13 23z"/>
<path d="M4537 6246 c-4 -15 -6 -31 -2 -34 10 -10 16 6 13 35 l-3 28 -8 -29z"/>
<path d="M4496 6158 c-3 -13 -1 -27 4 -32 7 -7 10 1 10 22 0 37 -5 41 -14 10z"/>
<path d="M4422 5995 c0 -16 2 -22 5 -12 2 9 2 23 0 30 -3 6 -5 -1 -5 -18z"/>
<path d="M4376 5907 c-5 -15 -6 -31 -2 -34 11 -11 18 5 14 34 l-4 28 -8 -28z"/>
<path d="M4335 5829 c-4 -12 -2 -26 4 -32 8 -8 11 -2 11 21 0 37 -6 41 -15 11z"/>
<path d="M1423 5773 c-9 -25 -46 -63 -60 -63 -9 0 -13 -15 -12 -42 l1 -43 9
33 c5 17 16 32 24 32 8 0 15 8 15 19 0 10 9 21 20 24 14 3 20 14 20 31 0 30
-8 34 -17 9z"/>
<path d="M4297 5743 c-11 -10 -8 -43 3 -43 6 0 10 11 10 25 0 26 -2 29 -13 18z"/>
<path d="M4261 5654 c0 -11 3 -14 6 -6 3 7 2 16 -1 19 -3 4 -6 -2 -5 -13z"/>
<path d="M4223 5565 c0 -22 2 -30 4 -17 2 12 2 30 0 40 -3 9 -5 -1 -4 -23z"/>
<path d="M4174 5484 c-4 -14 -2 -30 5 -37 8 -8 11 -1 11 26 0 43 -7 48 -16 11z"/>
<path d="M1352 5460 c0 -19 2 -27 5 -17 2 9 2 25 0 35 -3 9 -5 1 -5 -18z"/>
<path d="M4136 5404 c-4 -15 -2 -32 3 -37 8 -8 11 0 11 26 0 44 -5 47 -14 11z"/>
<path d="M1150 5344 c0 -9 11 -14 31 -14 35 0 31 15 -6 22 -17 4 -25 1 -25 -8z"/>
<path d="M1540 5340 c0 -5 4 -10 9 -10 6 0 13 5 16 10 3 6 -1 10 -9 10 -9 0
-16 -4 -16 -10z"/>
<path d="M4096 5314 c-4 -15 -2 -32 3 -37 8 -8 11 0 11 26 0 44 -5 47 -14 11z"/>
<path d="M1350 5283 c1 -24 2 -25 11 -10 7 13 23 17 62 17 29 0 59 5 67 10 10
7 -9 10 -62 10 l-78 0 0 -27z"/>
<path d="M4062 5230 c0 -14 2 -19 5 -12 2 6 2 18 0 25 -3 6 -5 1 -5 -13z"/>
<path d="M4945 5218 c-16 -5 -64 -16 -105 -23 -116 -21 -213 -46 -230 -60 -8
-7 -31 -18 -50 -23 -69 -21 -125 -44 -141 -58 -8 -8 -22 -14 -29 -14 -11 0
-48 -21 -99 -57 -3 -2 0 -8 6 -14 7 -7 30 -1 76 20 36 17 68 35 72 41 3 5 16
10 27 10 12 0 40 9 62 20 49 23 151 57 203 66 21 3 48 12 59 20 12 7 90 20
172 28 133 13 168 13 303 1 83 -8 158 -20 165 -26 8 -6 44 -18 81 -26 37 -7
72 -18 77 -23 6 -6 19 -10 30 -10 12 0 44 -12 71 -25 28 -14 60 -25 72 -25 12
0 25 -5 28 -10 12 -19 137 -72 154 -65 13 5 11 11 -14 31 -38 31 -151 86 -235
114 -36 12 -70 26 -76 31 -14 11 -121 38 -219 54 -44 7 -93 18 -108 24 -35 14
-311 13 -352 -1z"/>
<path d="M4023 5145 c0 -22 2 -30 4 -17 2 12 2 30 0 40 -3 9 -5 -1 -4 -23z"/>
<path d="M3974 5055 c-4 -15 -2 -31 3 -36 7 -7 12 0 15 21 6 38 -9 51 -18 15z"/>
<path d="M2173 5033 c-13 -3 -23 -12 -23 -21 0 -16 52 -17 744 -12 409 3 748
9 752 13 5 4 2 12 -6 17 -15 9 -1421 12 -1467 3z"/>
<path d="M6590 5030 c-44 -28 18 -30 742 -28 405 2 740 6 744 11 4 4 4 10 0
15 -12 11 -1468 14 -1486 2z"/>
<path d="M3937 4979 c-3 -19 -1 -38 3 -42 10 -11 19 49 10 64 -4 6 -10 -4 -13
-22z"/>
<path d="M5968 4938 c9 -9 15 -9 24 0 9 9 7 12 -12 12 -19 0 -21 -3 -12 -12z"/>
<path d="M3896 4884 c-4 -15 -2 -32 3 -37 8 -8 11 0 11 26 0 44 -5 47 -14 11z"/>
<path d="M1352 4840 c0 -19 2 -27 5 -17 2 9 2 25 0 35 -3 9 -5 1 -5 -18z"/>
<path d="M3862 4800 c0 -19 2 -27 5 -17 2 9 2 25 0 35 -3 9 -5 1 -5 -18z"/>
<path d="M3818 4731 c-6 -42 8 -60 16 -20 3 18 2 37 -3 42 -5 5 -10 -4 -13
-22z"/>
<path d="M1518 4703 c6 -2 18 -2 25 0 6 3 1 5 -13 5 -14 0 -19 -2 -12 -5z"/>
<path d="M1146 4671 c-8 -12 76 -23 110 -15 25 7 26 8 9 15 -28 11 -113 11
-119 0z"/>
<path d="M1398 4673 c-32 -8 -20 -26 13 -19 17 3 39 6 48 6 14 0 14 2 1 10
-16 10 -33 11 -62 3z"/>
<path d="M3774 4636 c-3 -15 -2 -32 3 -37 7 -7 13 -1 17 17 4 15 3 31 -3 37
-7 7 -12 1 -17 -17z"/>
<path d="M3736 4559 c-3 -18 -2 -37 3 -42 5 -5 12 4 16 23 4 18 3 36 -3 42 -6
6 -12 -2 -16 -23z"/>
<path d="M4251 4551 c-10 -7 -5 -15 25 -33 22 -14 53 -33 69 -44 17 -10 41
-24 55 -31 14 -7 32 -17 40 -23 8 -5 33 -17 55 -27 22 -9 43 -19 48 -21 4 -2
7 3 7 11 0 19 -26 41 -83 72 -26 14 -67 36 -92 49 -24 13 -52 31 -61 40 -17
18 -42 20 -63 7z"/>
<path d="M5919 4542 c-13 -10 -46 -32 -74 -48 -27 -15 -56 -34 -63 -41 -7 -7
-19 -13 -25 -13 -7 0 -25 -13 -40 -30 -41 -43 -15 -42 68 3 17 9 44 24 60 32
62 32 148 90 147 100 -2 18 -48 16 -73 -3z"/>
<path d="M3696 4475 c-9 -24 -7 -55 3 -55 12 0 22 53 12 63 -5 5 -11 1 -15 -8z"/>
<path d="M5410 4468 c0 -14 -73 -92 -117 -124 -70 -52 -181 -67 -269 -37 -46
15 -144 79 -159 103 -8 13 -25 3 -25 -13 0 -11 39 -56 72 -83 8 -6 38 -23 67
-37 46 -23 65 -27 144 -27 80 0 99 3 142 26 65 34 135 91 135 110 0 8 7 17 15
20 17 7 21 74 5 74 -5 0 -10 -6 -10 -12z"/>
<path d="M3662 4380 c0 -14 2 -19 5 -12 2 6 2 18 0 25 -3 6 -5 1 -5 -13z"/>
<path d="M3618 4296 c-2 -20 -1 -36 3 -36 12 0 21 52 11 62 -6 6 -11 -4 -14
-26z"/>
<path d="M3576 4224 c-9 -23 -7 -54 3 -54 9 0 21 33 21 58 0 17 -17 15 -24 -4z"/>
<path d="M1712 4205 c0 -16 2 -22 5 -12 2 9 2 23 0 30 -3 6 -5 -1 -5 -18z"/>
<path d="M3535 4129 c-6 -28 -1 -48 10 -37 3 2 8 19 11 36 8 42 -12 43 -21 1z"/>
<path d="M1665 4140 c3 -5 8 -10 11 -10 2 0 4 5 4 10 0 6 -5 10 -11 10 -5 0
-7 -4 -4 -10z"/>
<path d="M1535 4070 c-16 -7 -11 -9 20 -9 29 -1 36 2 25 9 -17 11 -19 11 -45
0z"/>
<path d="M9075 4070 c-3 -5 -1 -10 4 -10 6 0 11 5 11 10 0 6 -2 10 -4 10 -3 0
-8 -4 -11 -10z"/>
<path d="M3495 4039 c-6 -27 -1 -49 9 -38 10 11 17 69 8 69 -6 0 -13 -14 -17
-31z"/>
<path d="M1275 4030 c-53 -6 -49 -7 40 -7 63 -1 91 2 75 7 -28 9 -33 9 -115 0z"/>
<path d="M9003 4023 c9 -2 23 -2 30 0 6 3 -1 5 -18 5 -16 0 -22 -2 -12 -5z"/>
<path d="M3462 3955 c0 -16 2 -22 5 -12 2 9 2 23 0 30 -3 6 -5 -1 -5 -18z"/>
<path d="M3095 3894 c-27 -15 -52 -30 -55 -34 -3 -4 -16 -11 -29 -15 -21 -6
-81 -42 -107 -64 -7 -6 -27 -17 -45 -25 -19 -9 -43 -21 -54 -28 -11 -7 -47
-29 -81 -50 -33 -21 -65 -38 -71 -38 -5 0 -20 -9 -33 -20 -13 -11 -28 -20 -35
-20 -6 0 -22 -11 -35 -25 -17 -19 -21 -28 -13 -36 9 -9 19 -6 39 10 15 11 32
21 39 21 6 0 22 9 35 20 13 11 28 20 35 20 7 0 22 9 35 20 13 11 29 20 35 20
7 0 23 8 36 19 13 10 47 32 76 47 28 16 92 53 142 82 50 28 94 52 97 52 3 0
17 9 31 20 31 24 83 27 83 5 0 -8 5 -15 10 -15 14 0 13 13 -3 33 -22 31 -76
31 -132 1z"/>
<path d="M3417 3883 c-6 -33 2 -51 14 -32 11 18 11 59 0 59 -5 0 -11 -12 -14
-27z"/>
<path d="M7015 3894 c-17 -17 -17 -36 0 -35 6 0 11 10 13 21 3 18 8 21 30 15
15 -4 36 -15 48 -26 11 -10 28 -19 36 -19 9 0 23 -6 30 -13 14 -14 51 -36 107
-62 19 -9 40 -23 48 -31 8 -8 25 -17 39 -20 13 -3 24 -10 24 -14 0 -5 10 -12
23 -16 12 -4 33 -15 46 -25 13 -11 32 -19 41 -19 10 0 20 -7 23 -15 4 -8 21
-21 39 -30 18 -9 45 -23 61 -31 26 -15 47 -12 47 6 0 6 -15 16 -34 24 -18 8
-37 19 -40 25 -4 6 -16 11 -26 11 -10 0 -25 6 -32 13 -7 7 -35 26 -63 41 -27
16 -61 37 -74 48 -13 10 -32 18 -42 18 -10 0 -22 6 -26 13 -8 14 -38 32 -103
63 -19 9 -37 19 -40 23 -11 16 -99 51 -127 51 -18 0 -39 -7 -48 -16z"/>
<path d="M3376 3804 c-3 -9 -6 -24 -6 -35 0 -10 -6 -19 -14 -19 -15 0 -33 -76
-21 -88 9 -10 25 20 25 48 0 14 9 33 20 43 11 9 20 28 20 42 0 28 -15 34 -24
9z"/>
<path d="M3296 3635 c-9 -25 -7 -55 4 -55 14 0 24 50 13 61 -7 7 -12 5 -17 -6z"/>
<path d="M3260 3531 c0 -17 2 -31 4 -31 8 0 13 51 5 56 -5 3 -9 -9 -9 -25z"/>
<path d="M7680 3550 c0 -5 5 -10 11 -10 5 0 7 5 4 10 -3 6 -8 10 -11 10 -2 0
-4 -4 -4 -10z"/>
<path d="M3227 3480 c-12 -34 -15 -60 -6 -60 11 0 23 45 16 62 -3 10 -6 9 -10
-2z"/>
<path d="M8915 3470 c-3 -5 -1 -10 4 -10 6 0 11 5 11 10 0 6 -2 10 -4 10 -3 0
-8 -4 -11 -10z"/>
<path d="M1560 3430 c-19 -6 -12 -8 30 -8 39 -1 49 2 35 8 -24 10 -33 10 -65
0z"/>
<path d="M8848 3423 c6 -2 18 -2 25 0 6 3 1 5 -13 5 -14 0 -19 -2 -12 -5z"/>
<path d="M3175 3369 c-7 -33 -3 -45 14 -34 13 8 15 65 2 65 -5 0 -12 -14 -16
-31z"/>
<path d="M8758 3383 c6 -2 18 -2 25 0 6 3 1 5 -13 5 -14 0 -19 -2 -12 -5z"/>
<path d="M3136 3289 c-7 -36 2 -58 15 -38 11 18 11 69 0 69 -5 0 -11 -14 -15
-31z"/>
<path d="M3460 3240 c-20 -9 -22 -13 -10 -20 19 -12 3330 -13 3349 -1 11 7 11
10 0 17 -20 12 -3309 16 -3339 4z"/>
<path d="M3100 3207 c-10 -20 -11 -30 -2 -39 8 -8 13 -4 17 15 10 40 0 56 -15
24z"/>
<path d="M2191 3114 c0 -11 3 -14 6 -6 3 7 2 16 -1 19 -3 4 -6 -2 -5 -13z"/>
<path d="M3061 3104 c0 -11 3 -14 6 -6 3 7 2 16 -1 19 -3 4 -6 -2 -5 -13z"/>
<path d="M2146 3071 c-4 -5 -2 -12 3 -15 5 -4 12 -2 15 3 4 5 2 12 -3 15 -5 4
-12 2 -15 -3z"/>
<path d="M2105 3020 c4 -6 11 -8 16 -5 14 9 11 15 -7 15 -8 0 -12 -5 -9 -10z"/>
<path d="M8760 3019 c0 -5 5 -7 10 -4 6 3 10 8 10 11 0 2 -4 4 -10 4 -5 0 -10
-5 -10 -11z"/>
<path d="M1880 2870 c-12 -8 -9 -10 13 -10 15 0 27 5 27 10 0 13 -20 13 -40 0z"/>
<path d="M1730 2830 c-29 -6 -23 -8 33 -9 39 0 67 3 67 9 0 11 -47 11 -100 0z"/>
<path d="M8512 2831 c-20 -12 6 -20 38 -10 14 4 20 7 13 8 -6 1 -17 3 -25 6
-7 3 -19 1 -26 -4z"/>
<path d="M2547 2644 c-4 -4 -7 -14 -7 -23 0 -11 3 -12 11 -4 6 6 10 16 7 23
-2 6 -7 8 -11 4z"/>
<path d="M2305 2390 c-3 -5 3 -10 14 -10 11 0 23 5 26 10 3 6 -3 10 -14 10
-11 0 -23 -4 -26 -10z"/>
<path d="M2255 2350 c-3 -5 1 -10 9 -10 9 0 16 5 16 10 0 6 -4 10 -9 10 -6 0
-13 -4 -16 -10z"/>
<path d="M7645 2230 c-3 -5 -1 -10 4 -10 6 0 11 5 11 10 0 6 -2 10 -4 10 -3 0
-8 -4 -11 -10z"/>
<path d="M2981 2204 c0 -11 3 -14 6 -6 3 7 2 16 -1 19 -3 4 -6 -2 -5 -13z"/>
<path d="M7605 2190 c4 -6 11 -8 16 -5 14 9 11 15 -7 15 -8 0 -12 -5 -9 -10z"/>
<path d="M2940 2150 c0 -5 5 -10 10 -10 6 0 10 5 10 10 0 6 -4 10 -10 10 -5 0
-10 -4 -10 -10z"/>
<path d="M2780 1940 c0 -13 -7 -20 -20 -20 -11 0 -20 -4 -20 -10 0 -18 26 -11
48 13 26 27 28 37 7 37 -8 0 -15 -9 -15 -20z"/>
<path d="M7290 1949 c0 -5 5 -7 10 -4 6 3 10 8 10 11 0 2 -4 4 -10 4 -5 0 -10
-5 -10 -11z"/>
<path d="M7935 1950 c-3 -5 3 -10 14 -10 11 0 23 5 26 10 3 6 -3 10 -14 10
-11 0 -23 -4 -26 -10z"/>
<path d="M7870 1910 c0 -5 6 -10 14 -10 8 0 18 5 21 10 3 6 -3 10 -14 10 -12
0 -21 -4 -21 -10z"/>
<path d="M2690 1870 c0 -5 6 -10 14 -10 8 0 18 5 21 10 3 6 -3 10 -14 10 -12
0 -21 -4 -21 -10z"/>
<path d="M7785 1870 c-3 -5 3 -10 14 -10 11 0 23 5 26 10 3 6 -3 10 -14 10
-11 0 -23 -4 -26 -10z"/>
<path d="M3381 1624 c0 -11 3 -14 6 -6 3 7 2 16 -1 19 -3 4 -6 -2 -5 -13z"/>
<path d="M6623 1593 c9 -2 23 -2 30 0 6 3 -1 5 -18 5 -16 0 -22 -2 -12 -5z"/>
<path d="M3340 1554 c0 -8 5 -12 10 -9 6 4 8 11 5 16 -9 14 -15 11 -15 -7z"/>
<path d="M6503 1553 c9 -2 25 -2 35 0 9 3 1 5 -18 5 -19 0 -27 -2 -17 -5z"/>
<path d="M3296 1521 c-4 -5 -2 -12 3 -15 5 -4 12 -2 15 3 4 5 2 12 -3 15 -5 4
-12 2 -15 -3z"/>
<path d="M7353 1509 c11 -7 23 -7 35 0 14 9 11 10 -18 10 -29 0 -32 -1 -17
-10z"/>
<path d="M3190 1476 c0 -9 37 -12 55 -5 15 6 11 8 -17 8 -21 1 -38 -1 -38 -3z"/>
<path d="M7228 1473 c12 -2 32 -2 45 0 12 2 2 4 -23 4 -25 0 -35 -2 -22 -4z"/>
<path d="M5968 1393 c7 -3 16 -2 19 1 4 3 -2 6 -13 5 -11 0 -14 -3 -6 -6z"/>
<path d="M5743 1353 c9 -2 23 -2 30 0 6 3 -1 5 -18 5 -16 0 -22 -2 -12 -5z"/>
<path d="M3898 1193 c6 -2 18 -2 25 0 6 3 1 5 -13 5 -14 0 -19 -2 -12 -5z"/>
<path d="M3663 1153 c32 -2 81 -2 110 0 29 2 3 3 -58 3 -60 0 -84 -1 -52 -3z"/>
<path d="M6473 1153 c37 -2 97 -2 135 0 37 2 6 3 -68 3 -74 0 -105 -1 -67 -3z"/>
<path d="M4348 953 c17 -2 47 -2 65 0 17 2 3 4 -33 4 -36 0 -50 -2 -32 -4z"/>
<path d="M3650 396 c0 -2 14 -6 30 -8 17 -3 30 -1 30 4 0 4 -13 8 -30 8 -16 0
-30 -2 -30 -4z"/>
</g>
</svg>
